<?xml version="1.0" encoding="UTF-8" standalone="no"?>
<!-- Created with Inkscape (http://www.inkscape.org/) -->

<svg
   xmlns:dc="http://purl.org/dc/elements/1.1/"
   xmlns:cc="http://creativecommons.org/ns#"
   xmlns:rdf="http://www.w3.org/1999/02/22-rdf-syntax-ns#"
   xmlns:svg="http://www.w3.org/2000/svg"
   xmlns="http://www.w3.org/2000/svg"
   xmlns:xlink="http://www.w3.org/1999/xlink"
   xmlns:sodipodi="http://sodipodi.sourceforge.net/DTD/sodipodi-0.dtd"
   xmlns:inkscape="http://www.inkscape.org/namespaces/inkscape"
   width="615.63214"
   height="554.80371"
   id="svg16936"
   version="1.1"
   inkscape:version="0.48.5 r10040"
   sodipodi:docname="bazooka.svg">
  <defs
     id="defs16938">
    <radialGradient
       inkscape:collect="always"
       xlink:href="#linearGradient9744"
       id="radialGradient12156"
       gradientUnits="userSpaceOnUse"
       gradientTransform="matrix(-0.82679771,-5.4411104e-8,3.4356155e-8,-0.88325332,-610.64527,3466.146)"
       cx="-153.70593"
       cy="1307.6813"
       fx="-153.70593"
       fy="1307.6813"
       r="496.03799" />
    <linearGradient
       id="linearGradient9744"
       inkscape:collect="always">
      <stop
         id="stop9746"
         offset="0"
         style="stop-color:#e2dfd9;stop-opacity:1" />
      <stop
         id="stop9748"
         offset="1"
         style="stop-color:#a39e87;stop-opacity:1" />
    </linearGradient>
    <radialGradient
       inkscape:collect="always"
       xlink:href="#linearGradient9744"
       id="radialGradient20311"
       gradientUnits="userSpaceOnUse"
       gradientTransform="matrix(-0.82679771,-5.4411104e-8,3.4356155e-8,-0.88325332,278.32054,1553.2754)"
       cx="-153.70593"
       cy="1307.6813"
       fx="-153.70593"
       fy="1307.6813"
       r="496.03799" />
  </defs>
  <sodipodi:namedview
     id="base"
     pagecolor="#ffffff"
     bordercolor="#666666"
     borderopacity="1.0"
     inkscape:pageopacity="0.0"
     inkscape:pageshadow="2"
     inkscape:zoom="0.7"
     inkscape:cx="690.02677"
     inkscape:cy="89.958712"
     inkscape:document-units="px"
     inkscape:current-layer="layer1"
     showgrid="false"
     inkscape:window-width="1920"
     inkscape:window-height="1018"
     inkscape:window-x="-8"
     inkscape:window-y="-8"
     inkscape:window-maximized="1"
     fit-margin-top="0"
     fit-margin-left="0"
     fit-margin-right="0"
     fit-margin-bottom="0" />
  <metadata
     id="metadata16941">
    <rdf:RDF>
      <cc:Work
         rdf:about="">
        <dc:format>image/svg+xml</dc:format>
        <dc:type
           rdf:resource="http://purl.org/dc/dcmitype/StillImage" />
        <dc:title></dc:title>
      </cc:Work>
    </rdf:RDF>
  </metadata>
  <g
     inkscape:label="Layer 1"
     inkscape:groupmode="layer"
     id="layer1"
     transform="translate(-0.25100386,-3.641828)">
    <g
       transform="matrix(0.90299072,0,0,0.90299072,-7.5728672,-451.4678)"
       id="g4627"
       inkscape:export-filename="C:\Users\Robert\Desktop\weapons-pack\pngs\bazooka.png"
       inkscape:export-xdpi="67.716446"
       inkscape:export-ydpi="67.716446">
      <path
         inkscape:connector-curvature="0"
         id="path4625"
         d="m 661.45716,516.83102 c -3.0615,0.54224 -7.89133,11.88472 -7.89133,11.88472 0,0 2.46001,59.23864 3.6408,60.3889 1.18081,1.15027 5.90402,13.80319 5.90402,13.80319 l 10.82401,-16.48715 c 0,0 -1.96801,-25.30582 -1.37761,-27.79806 0.59041,-2.49223 1.968,-18.97937 0.984,-20.70476 -0.984,-1.72539 -6.2976,-11.88607 -7.2816,-13.41977 -0.984,-1.53367 -4.80229,-7.66707 -4.80229,-7.66707 z"
         style="color:#000000;fill:#3f711f;fill-opacity:1;fill-rule:nonzero;stroke:#000000;stroke-width:7.95602274;stroke-linejoin:round;marker:none;visibility:visible;display:inline;overflow:visible;enable-background:accumulate" />
      <g
         inkscape:export-ydpi="67.165398"
         inkscape:export-xdpi="67.165398"
         inkscape:export-filename="C:\Users\Robert\Desktop\weapons-pack\pngs\bazooka.png"
         transform="matrix(1.5383338,0,0,1.5383338,-514.44201,-243.80385)"
         id="g4423">
        <path
           style="fill:#447821;fill-opacity:1;stroke:#000000;stroke-width:5.2004323;stroke-linejoin:round;stroke-miterlimit:4;stroke-dasharray:none"
           d="m 675.74944,544.66456 c 0.35355,4.41942 0,10.25305 0,10.25305 0,0 -1.41421,0.88388 -4.59619,-0.88389 -3.18198,-1.76776 -4.24264,-9.54594 -4.24264,-9.54594 z"
           id="path4129"
           inkscape:connector-curvature="0"
           sodipodi:nodetypes="ccscc" />
        <path
           style="fill:#333333;fill-opacity:1;stroke:#000000;stroke-width:5.2004323;stroke-linejoin:round;stroke-miterlimit:4;stroke-opacity:1;stroke-dasharray:none;stroke-dashoffset:0"
           d="m 721.75,553.86218 c 4.75,-3.625 5,-10.5 5.375,-13.125 0.375,-2.625 4.5,-4.5 7.375,-2.375 2.875,2.125 -1.875,11.75 -5,14.125 -3.125,2.375 -3.125,2.5 -5,2.5 -1.875,0 -2.75,-1.125 -2.75,-1.125 z"
           id="path4369"
           inkscape:connector-curvature="0"
           transform="translate(-4.9229925e-6,0)"
           sodipodi:nodetypes="cssssc" />
        <g
           id="g4362"
           transform="translate(-6.7500002,0)">
          <path
             id="path4352"
             transform="translate(-4.9229925e-6,0)"
             d="m 711.78125,537.875 c 2.05859,3.75391 -0.7934,44.7709 0.0312,48.03125 0.005,0.0205 0.0265,0.0445 0.0312,0.0625 0.0204,0.0579 0.0381,0.13927 0.0625,0.15625 1.4375,1 3.96875,2.04688 6.875,2.625 2.90625,0.57812 6.1875,0.6875 9.125,-0.25 0.68381,-0.21824 0.9882,-1.77182 1.0625,-3.96875 3.2e-4,-0.01 -3.1e-4,-0.0215 0,-0.0312 0.0177,-0.54403 0.0405,-1.13518 0.0312,-1.75 -1.6e-4,-0.01 1.6e-4,-0.0213 0,-0.0312 -0.01,-0.61696 -0.0298,-1.2695 -0.0625,-1.9375 -4.9e-4,-0.01 5e-4,-0.0213 0,-0.0312 -0.13378,-2.70794 -0.46887,-5.74309 -0.8125,-8.46875 -0.001,-0.0111 10e-4,-0.0202 0,-0.0312 -0.17118,-1.35552 -0.35778,-2.63353 -0.53125,-3.75 -0.002,-0.0121 0.002,-0.0191 0,-0.0312 -0.34955,-2.24591 -0.65625,-3.8125 -0.8125,-4.09375 -0.154,-0.2772 -0.481,-0.66169 -0.875,-1.125 -0.004,-0.005 0.004,-0.0261 0,-0.0312 -0.40234,-0.47266 -0.89063,-1.01563 -1.40625,-1.65625 -0.25781,-0.32031 -0.52002,-0.67334 -0.78125,-1.03125 -0.78369,-1.07373 -1.54688,-2.29688 -2.0625,-3.65625 -0.51267,-1.35158 -0.75338,-3.14589 -0.78125,-4.96875 -1.4e-4,-0.0104 1.3e-4,-0.0209 0,-0.0312 -0.0169,-1.21219 0.0743,-2.44207 0.21875,-3.59375 10e-4,-0.0105 -0.001,-0.0208 0,-0.0312 0.22046,-1.74023 0.59375,-3.26563 1.0625,-4.25 1.25,-2.625 2.25,-5.5 2.25,-5.5 l -12.625,-0.625 z"
             style="fill:#39661c;fill-opacity:1;stroke:#000000;stroke-width:5.2004323;stroke-linejoin:round;stroke-miterlimit:4;stroke-dasharray:none"
             inkscape:connector-curvature="0" />
          <g
             id="g4345">
            <path
               style="fill:#39661c;fill-opacity:1;stroke:none"
               d="m 711.78217,537.86218 c 2.125,3.875 -0.98018,47.48118 0.125,48.25 2.875,2 10.125,4.25 16,2.375 2.74923,-0.87741 -0.5,-23 -1.125,-24.125 -0.625,-1.125 -3.75,-3.875 -5.125,-7.5 -1.375,-3.625 -0.75,-10.25 0.5,-12.875 1.25,-2.625 2.25,-5.5 2.25,-5.5 z"
               id="path4127"
               inkscape:connector-curvature="0"
               sodipodi:nodetypes="cssssscc" />
            <path
               style="opacity:0.3495575;fill:#000000;fill-opacity:1;stroke:none"
               d="m 720.375,541.46875 c -1.59099,11.84404 -1.87565,10.93934 -0.90625,16.28125 0.65487,3.60867 3.64464,6.48161 4.4375,10.0625 1.13401,5.12166 3.5879,11.62776 0.34375,15.75 -2.05146,2.60672 -6.4117,1.83517 -9.71875,2.09375 -0.78727,0.0616 -1.74339,0.055 -2.75,0.0312 0.0347,0.22558 0.0719,0.40056 0.125,0.4375 2.875,2 10.125,4.25 16,2.375 2.74923,-0.87741 -0.5,-23 -1.125,-24.125 -0.625,-1.125 -3.75,-3.875 -5.125,-7.5 -1.375,-3.625 -0.75,-10.25 0.5,-12.875 0.23748,-0.49871 0.44196,-1.00467 0.65625,-1.5 -1.04447,-0.44208 -2.4375,-1.03125 -2.4375,-1.03125 z"
               transform="translate(-4.9229925e-6,0)"
               id="path4338"
               inkscape:connector-curvature="0" />
            <path
               style="opacity:0.17256637;fill:#ffffff;fill-opacity:1;stroke:none"
               d="m 714.70818,547.84149 c -0.35355,8.83884 -1.06066,32.17336 -0.53033,33.76435 0.53033,1.59099 0.70711,1.94454 2.12132,1.94454 1.41422,0 2.65165,-1.41421 1.94455,-3.53553 -0.70711,-2.12132 -1.76777,-27.93072 -1.41422,-30.22881 0.35356,-2.2981 0.35356,-2.65165 0.35356,-2.65165 z"
               id="path4343"
               inkscape:connector-curvature="0"
               transform="translate(-4.9229925e-6,0)" />
          </g>
        </g>
        <path
           inkscape:connector-curvature="0"
           id="path4235"
           d="m 775.27472,502.23816 c 2.12132,0.20764 4.06586,0.62296 4.59619,1.45356 0.53033,0.83062 1.41422,36.9622 0,39.03873 -1.41421,2.07653 -5.83363,1.45357 -5.83363,1.45357 z"
           style="fill:#000000;fill-opacity:1;stroke:#000000;stroke-width:5.2004323;stroke-linejoin:round;stroke-miterlimit:4;stroke-dasharray:none" />
        <path
           style="fill:#333333;fill-opacity:1;stroke:none"
           d="m 775.27472,502.23816 c 2.12132,0.20764 4.06586,0.62296 4.59619,1.45356 0.53033,0.83062 1.41422,36.9622 0,39.03873 -1.41421,2.07653 -5.83363,1.45357 -5.83363,1.45357 z"
           id="path4125"
           inkscape:connector-curvature="0" />
        <g
           id="g4215"
           transform="matrix(-1,0,0,1,1119.2822,4.5000001)">
          <g
             id="g4208">
            <path
               sodipodi:nodetypes="cscsscccc"
               transform="translate(-4.9229925e-6,0)"
               inkscape:connector-curvature="0"
               id="path4213"
               d="m 648.75,544.61218 c -24.75,14.5 -24.25,38.75 -28.75,43.25 -4.5,4.5 -12.67157,2.2981 -15.5,0 -2.2981,-4.50781 5.09099,-24.32322 6.59099,-29.32322 1.5,-5 1.58579,-8.20711 0.58579,-12.70711 -1,-4.5 -4.71231,-9.15165 -4.71231,-9.15165 L 633.5,526.36218 l 19,10 z"
               style="fill:#39661c;fill-opacity:1;stroke:#000000;stroke-width:5.2004323;stroke-linejoin:round;stroke-miterlimit:4;stroke-dasharray:none" />
            <path
               style="fill:#4d4d4d;fill-opacity:1;stroke:none"
               d="m 648.75,544.61218 c -24.75,14.5 -24.25,38.75 -28.75,43.25 -4.5,4.5 -12.67157,2.2981 -15.5,0 -2.2981,-4.50781 5.09099,-24.32322 6.59099,-29.32322 1.5,-5 1.58579,-8.20711 0.58579,-12.70711 -1,-4.5 -4.71231,-9.15165 -4.71231,-9.15165 L 633.5,526.36218 l 19,10 z"
               id="path4197"
               inkscape:connector-curvature="0"
               transform="translate(-4.9229925e-6,0)"
               sodipodi:nodetypes="cscsscccc" />
            <path
               style="opacity:0.26548671;fill:#000000;fill-opacity:1;stroke:none"
               d="m 644.625,532.21875 -10.53125,2 c 1.59099,14.31891 -13.70697,20.48679 -18.21875,31.84375 -2.50642,6.30909 -5.45711,16.77605 -4.75,19.78125 0.32289,1.37228 0.77628,3.19282 2,4.625 2.49784,-0.0257 4.99993,-0.71868 6.875,-2.59375 4.5,-4.5 4,-28.75 28.75,-43.25 l 3.75,-8.25 -7.875,-4.15625 z"
               transform="translate(-4.9229925e-6,0)"
               id="path4199"
               inkscape:connector-curvature="0" />
          </g>
        </g>
        <g
           id="g4182"
           transform="matrix(-1,0,0,1,1119.2822,-3.535534)">
          <g
             id="g4168">
            <path
               sodipodi:nodetypes="ccccc"
               inkscape:connector-curvature="0"
               id="path4162"
               d="m 439.75,493.98718 40,0 0,9.25 -45.625,0 c 0,0 -0.75,-9.375 5.625,-9.25 z"
               style="fill:#677821;fill-opacity:1;stroke:#000000;stroke-width:5.2004323;stroke-linejoin:round;stroke-miterlimit:4;stroke-dasharray:none" />
            <path
               inkscape:connector-curvature="0"
               id="path4164"
               d="m 377.59502,502.76849 c 0,0 -0.7071,-3.88909 0.17678,-4.41942 0.88388,-0.53033 33.76435,0.53033 34.82501,0.53033 1.06066,0 2.12132,1.76776 2.12132,3.35876 0,1.59099 0,1.59099 0,1.59099 z"
               style="fill:#677821;fill-opacity:1;stroke:#000000;stroke-width:5.2004323;stroke-linejoin:round;stroke-miterlimit:4;stroke-dasharray:none" />
            <path
               style="fill:#677821;fill-opacity:1;stroke:none"
               d="m 439.75,493.98718 40,0 0,9.25 -45.625,0 c 0,0 -0.75,-9.375 5.625,-9.25 z"
               id="path4119"
               inkscape:connector-curvature="0"
               sodipodi:nodetypes="ccccc" />
            <path
               style="fill:#677821;fill-opacity:1;stroke:none"
               d="m 377.59502,502.76849 c 0,0 -0.7071,-3.88909 0.17678,-4.41942 0.88388,-0.53033 33.76435,0.53033 34.82501,0.53033 1.06066,0 2.12132,1.76776 2.12132,3.35876 0,1.59099 0,1.59099 0,1.59099 z"
               id="path4121"
               inkscape:connector-curvature="0" />
          </g>
          <path
             transform="translate(-4.9229925e-6,0)"
             inkscape:connector-curvature="0"
             id="path4175"
             d="m 435.75,500.11218 c 3.625,-3.75 2.875,-4.375 12.25,-4.375 9.375,0 25.125,0.25 25.125,0.25 l 0.375,2.375 c 0,0 -30.75,-1.125 -32.375,-0.625 -1.625,0.5 -5.375,2.375 -5.375,2.375 z"
             style="opacity:0.62389377;fill:#ffffff;fill-opacity:1;stroke:none" />
        </g>
        <g
           id="g4153"
           transform="matrix(-1,0,0,1,1119.2822,0)">
          <path
             style="fill:#39661c;fill-opacity:1;stroke:#000000;stroke-width:5.2004323;stroke-linejoin:round;stroke-miterlimit:4;stroke-dasharray:none"
             d="m 734.15362,500.11683 c 10.07627,-3.71231 25.72101,-11.40209 25.72101,-11.40209 l 9.98788,0.0884 c 9.72272,0.70711 8.3085,69.29646 0,69.47324 l -9.19239,0 -25.66939,-14.82023 z"
             id="path4150"
             inkscape:connector-curvature="0"
             sodipodi:nodetypes="ccccccc" />
          <path
             sodipodi:nodetypes="ccccccc"
             inkscape:connector-curvature="0"
             id="path4094"
             d="m 734.15362,500.11683 c 10.07627,-3.71231 25.72101,-11.40209 25.72101,-11.40209 l 9.98788,0.0884 c 9.72272,0.70711 8.3085,69.29646 0,69.47324 l -9.19239,0 -25.66939,-14.82023 z"
             style="fill:#483737;fill-opacity:1;stroke:none" />
          <path
             inkscape:connector-curvature="0"
             id="path4097"
             d="m 761.5,488.71875 c 6.06083,16.11601 5.79899,56.55666 -0.4375,69.5625 l 8.8125,0 c 8.3085,-0.17678 9.72272,-68.76164 0,-69.46875 l -8.375,-0.0937 z"
             style="opacity:0.4557522;fill:#000000;fill-opacity:1;stroke:none" />
          <path
             sodipodi:nodetypes="ccccssc"
             inkscape:connector-curvature="0"
             id="path4134"
             transform="translate(-4.9229925e-6,0)"
             d="m 764.5625,502.40625 c 2.56503,18.96289 1.36178,45.73605 -3.5,55.875 l 8.8125,0 c 3.15014,-0.067 5.31324,-9.97459 6.25,-22.28125 -3.93212,-3.56898 -6.38423,7.58128 -7.6875,3.37069 -2.2981,-7.42462 -1.24204,-30.59312 -2.65625,-32.71444 -0.64929,-0.97393 -0.71829,-2.83899 -1.21875,-4.25 z"
             style="opacity:0.42307691;fill:#000000;fill-opacity:1;stroke:none" />
          <path
             transform="translate(-4.9229925e-6,0)"
             inkscape:connector-curvature="0"
             id="path4136"
             d="m 764.55921,494.10138 c 2.82843,-1.06066 7.42462,-0.88389 7.95495,0.7071 0.53033,1.59099 1.41421,3.35876 0.53033,3.71231 -0.88388,0.35356 -6.18718,0.35356 -7.24784,0.35356 -1.06066,0 -1.23744,-4.77297 -1.23744,-4.77297 z"
             style="opacity:0.42307691;fill:#ffffff;fill-opacity:1;stroke:none" />
          <path
             inkscape:connector-curvature="0"
             style="opacity:0.42307691;fill:#000000;fill-opacity:1;stroke:none"
             d="m 378.96875,522.03125 c -0.13161,-0.0128 -3.97438,7.75118 -8.15625,9.1875 -9.54595,1.23711 -9.02452,-10.24048 -17.15625,1.25 0,0 8.2e-4,0.14849 0,0.15625 0.55282,10.73823 2.0544,20.42576 4.5625,25.65625 l 0.40625,0 25.65625,-14.8125 0.34375,-16.9375 c -2.21769,-2.50176 -4.324,-4.37085 -5.65625,-4.5 z"
             transform="matrix(-1,0,0,1,1119.2822,0)"
             id="path4143" />
          <path
             transform="translate(-4.9229925e-6,0)"
             inkscape:connector-curvature="0"
             id="path4148"
             d="m 738.74981,503.11699 c 14.31891,-4.5962 17.5009,-6.54074 19.26866,-5.83363 1.76777,0.7071 1.94455,4.41941 1.94455,4.41941 0,0 -18.208,4.94975 -19.79899,5.65686 -1.59099,0.70711 -4.41942,-1.06066 -4.41942,-2.2981 0,-1.23743 3.0052,-1.94454 3.0052,-1.94454 z"
             style="opacity:0.26442309;fill:#ffffff;fill-opacity:1;stroke:none" />
        </g>
        <path
           sodipodi:nodetypes="ccccc"
           inkscape:connector-curvature="0"
           id="path4233"
           d="m 763.72511,501.17749 -375.5686,0 c -8.03604,0.10143 -6.00016,41.02501 0,41.36575 l 375.5686,0 c 5.75,0.25 5.125,-41.36575 0,-41.36575 z"
           style="fill:#39661c;fill-opacity:1;stroke:#000000;stroke-width:5.2004323;stroke-miterlimit:4;stroke-dasharray:none" />
        <g
           id="g4419"
           transform="translate(0,-1.2374369)">
          <path
             style="fill:#17280b;fill-opacity:1;stroke:#000000;stroke-width:5.2004323;stroke-linejoin:round;stroke-miterlimit:4;stroke-dasharray:none"
             d="m 536.48862,546.07878 c 0.17677,2.82843 0.53033,3.35876 -0.35356,4.41942 -0.88388,1.06066 -76.89786,2.82842 -77.60497,2.12132 -0.7071,-0.70711 0.35356,-1.76777 0.35356,-1.76777 l -10.60661,-0.35355 -0.35355,-4.06587 87.50447,0 z"
             id="path4231"
             inkscape:connector-curvature="0" />
          <path
             inkscape:connector-curvature="0"
             id="path4131"
             d="m 536.48862,546.07878 c 0.17677,2.82843 0.53033,3.35876 -0.35356,4.41942 -0.88388,1.06066 -76.89786,2.82842 -77.60497,2.12132 -0.7071,-0.70711 0.35356,-1.76777 0.35356,-1.76777 l -10.60661,-0.35355 -0.35355,-4.06587 87.50447,0 z"
             style="opacity:0.78761058;fill:#17280b;fill-opacity:1;stroke:none" />
        </g>
        <path
           inkscape:connector-curvature="0"
           id="path4402"
           d="m 764.40295,494.45998 7.51301,-0.17678 4.50781,4.94975 1.41421,19.0035 -0.44194,20.59448 -4.41942,12.19759 -6.89429,0 3.88909,-11.84404 0.70711,-21.74353 -1.41422,-17.85445 z"
           style="fill:#cccccc;fill-opacity:1;stroke:#000000;stroke-width:5.2004323;stroke-linejoin:round;stroke-miterlimit:4;stroke-dasharray:none" />
        <path
           style="fill:#3f711f;fill-opacity:1;stroke:none"
           d="m 763.72511,501.17749 -375.5686,0 c -8.03604,0.10143 -6.00016,41.02501 0,41.36575 l 375.5686,0 c 5.75,0.25 5.125,-41.36575 0,-41.36575 z"
           id="rect4113"
           inkscape:connector-curvature="0"
           sodipodi:nodetypes="ccccc" />
        <path
           style="opacity:0.26991152;fill:#000000;fill-opacity:1;stroke:none"
           d="m 384.98689,501.1875 c -1.24923,3.62879 -1.52995,6.6467 0.0312,7.6875 3,2 203.98186,2.5 211.48186,2.5 7.5,0 23.5,2 23.5,-7 0,-1.02621 -0.0641,-2.10552 -0.15625,-3.1875 z"
           transform="translate(-4.9229925e-6,0)"
           id="path4331"
           inkscape:connector-curvature="0"
           sodipodi:nodetypes="cssscc" />
        <path
           style="fill:#cccccc;fill-opacity:1;stroke:none"
           d="m 764.40295,494.45998 7.51301,-0.17678 4.50781,4.94975 1.41421,19.0035 -0.44194,20.59448 -4.41942,12.19759 -6.89429,0 3.88909,-11.84404 0.70711,-21.74353 -1.41422,-17.85445 z"
           id="path4123"
           inkscape:connector-curvature="0" />
        <path
           sodipodi:nodetypes="sssssssss"
           inkscape:connector-curvature="0"
           id="path4299"
           d="m 400.15165,509.36218 13.6967,0 c 1.46901,0 3.37185,1.3713 2.65165,2.65165 -1.125,2 -0.875,13.3217 0,13.6967 1.35024,0.57868 -1.18264,2.65165 -2.65165,2.65165 l -13.6967,0 c -1.46901,0 -1.79155,-1.46075 -2.65165,-2.65165 -1.625,-2.25 -0.625,-11.8217 0,-13.6967 0.46454,-1.39363 1.18264,-2.65165 2.65165,-2.65165 z"
           style="fill:#39661c;fill-opacity:1;stroke:#000000;stroke-width:5;stroke-linejoin:round;stroke-miterlimit:4;stroke-dasharray:none"
           transform="translate(-4.9229925e-6,0)" />
        <path
           transform="translate(-4.9229925e-6,0)"
           style="fill:#784421;fill-opacity:1;stroke:none"
           d="m 400.15165,509.36218 13.6967,0 c 1.46901,0 3.37185,1.3713 2.65165,2.65165 -1.125,2 -0.875,13.3217 0,13.6967 1.35024,0.57868 -1.18264,2.65165 -2.65165,2.65165 l -13.6967,0 c -1.46901,0 -1.79155,-1.46075 -2.65165,-2.65165 -1.625,-2.25 -0.625,-11.8217 0,-13.6967 0.46454,-1.39363 1.18264,-2.65165 2.65165,-2.65165 z"
           id="rect4295"
           inkscape:connector-curvature="0"
           sodipodi:nodetypes="sssssssss" />
        <path
           inkscape:connector-curvature="0"
           style="opacity:0.41592922;fill:#000000;fill-opacity:1;stroke:none"
           d="m 399.53125,518.1875 c -0.89571,-0.003 -1.87089,0.0172 -2.84375,0.0312 -0.16602,3.06696 -0.0478,6.30881 0.8125,7.5 0.8601,1.1909 1.18724,2.65625 2.65625,2.65625 l 13.6875,0 c 1.46901,0 4.00649,-2.07757 2.65625,-2.65625 -0.4827,-0.20687 -0.77362,-3.75188 -0.75,-7.21875 -0.85252,-0.0485 -2.26328,-0.125 -2.375,-0.125 -0.5,0 -0.125,0.625 -0.5,1.25 -0.375,0.625 -1.875,1 -3.25,0.5 -1.375,-0.5 1.875,-2 -1.125,-1.875 -2.25,0.0937 -5.27734,-0.0508 -8.96875,-0.0625 z"
           transform="translate(-4.9229925e-6,0)"
           id="path4305" />
        <path
           sodipodi:nodetypes="ccccc"
           inkscape:connector-curvature="0"
           id="path4417"
           transform="translate(-4.9229925e-6,0)"
           d="m 613.25,501.1875 c 1,1.25 1,37.09375 0,41.34375 l 7.75,0 c 2.25,-1.5 1.5,-40.34375 0,-41.34375 z"
           style="fill:#ffff00;fill-opacity:1;stroke:#000000;stroke-width:3.25027037;stroke-miterlimit:4;stroke-dasharray:none" />
        <path
           style="fill:#ffff00;fill-opacity:1;stroke:none"
           d="m 613.25,501.1875 c 1,1.25 1,37.09375 0,41.34375 l 7.75,0 c 2.25,-1.5 1.5,-40.34375 0,-41.34375 z"
           transform="translate(-4.9229925e-6,0)"
           id="rect4371"
           inkscape:connector-curvature="0"
           sodipodi:nodetypes="ccccc" />
        <rect
           style="opacity:0.10576926;fill:#ffffff;fill-opacity:1;stroke:none"
           id="rect4376"
           width="62.578949"
           height="7.4246211"
           x="539.52246"
           y="514.25391"
           transform="translate(-4.9229925e-6,0)"
           ry="2.6516504" />
        <rect
           ry="2.6516504"
           y="514.25391"
           x="473.40796"
           height="7.4246211"
           width="27.22361"
           id="rect4378"
           style="opacity:0.10576926;fill:#ffffff;fill-opacity:1;stroke:none" />
        <rect
           style="opacity:0.10576926;fill:#ffffff;fill-opacity:1;stroke:none"
           id="rect4380"
           width="13.081474"
           height="7.4246211"
           x="423.55692"
           y="514.25391"
           ry="2.6516504" />
        <rect
           ry="2.2651825"
           y="514.44141"
           x="630.02246"
           height="6.3425112"
           width="112.82895"
           id="rect4382"
           style="opacity:0.10576926;fill:#ffffff;fill-opacity:1;stroke:none" />
        <path
           inkscape:connector-curvature="0"
           style="opacity:0.3539823;fill:#000000;fill-opacity:1;stroke:none"
           d="m 771.90625,494.28125 -7.5,0.1875 4.84375,5.125 0,0.0312 c 2.76609,-0.0864 5.07793,-0.14018 7.21875,-0.1875 l -0.0312,-0.21875 -4.53125,-4.9375 z"
           transform="translate(-4.9229925e-6,0)"
           id="path4384" />
        <path
           inkscape:connector-curvature="0"
           style="opacity:0.6017699;fill:#000000;fill-opacity:1;stroke:none"
           d="m 770.6875,517.25 0,0.1875 -0.71875,21.5625 7.375,0 0.0625,-0.15625 0.4375,-20.59375 -0.0625,-1 -7.09375,0 z"
           transform="translate(-4.9229925e-6,0)"
           id="path4386" />
        <path
           style="opacity:0.82743363;fill:#000000;fill-opacity:1;stroke:none"
           d="m 769.21875,539 0,0.1875 -3.875,11.84375 8.625,0 4.375,-12.03125 z"
           transform="translate(-4.9229925e-6,0)"
           id="path4388"
           inkscape:connector-curvature="0"
           sodipodi:nodetypes="cccccc" />
        <path
           inkscape:connector-curvature="0"
           style="opacity:0.28088493;fill:#000000;fill-opacity:1;stroke:none"
           d="m 752.59375,501.1875 c 3.7206,7.60143 4.11322,18.03052 2.3125,27.125 -24.37119,0.69124 -46.53359,-2.71118 -67.90625,-4.9375 -24,-2.5 -71.5,11 -86,12 -13.59375,0.9375 -142.3429,-12.68738 -204.46875,-12.65625 -4.14172,0.002 -7.84375,0.0625 -11.03125,0.15625 0,0 -1.9522,0.28679 -2.53125,0.375 0.05,1.22193 0.12208,2.43366 0.21875,3.625 0.0863,1.06389 0.19076,2.1113 0.3125,3.125 0.0451,0.37564 0.10643,0.72729 0.15625,1.09375 0.19211,1.41312 0.39727,2.76814 0.65625,4 0.0604,0.28485 0.12368,0.57092 0.1875,0.84375 0.0433,0.18624 0.11142,0.38222 0.15625,0.5625 0.11122,0.44726 0.22308,0.87367 0.34375,1.28125 0.0827,0.27661 0.16312,0.5559 0.25,0.8125 0.0382,0.11346 0.086,0.2344 0.125,0.34375 0.12982,0.36362 0.26757,0.71587 0.40625,1.03125 0.13868,0.31538 0.25901,0.58087 0.40625,0.84375 0.12829,0.22955 0.27179,0.43805 0.40625,0.625 0.14077,0.19487 0.29007,0.35522 0.4375,0.5 0.0245,0.0244 0.0378,0.0708 0.0625,0.0937 0.0521,0.0476 0.10337,0.0839 0.15625,0.125 0.1183,0.093 0.22164,0.19055 0.34375,0.25 0.007,0.004 0.024,-0.003 0.0312,0 0.081,0.0377 0.16739,0.0714 0.25,0.0937 0.096,0.0269 0.18305,0.0257 0.28125,0.0312 l 361.375,0 14.1875,0 c 5.75,0.25 5.125,-41.34375 0,-41.34375 l -11.125,0 z"
           transform="translate(-4.9229925e-6,0)"
           id="path4404" />
        <g
           id="g4310"
           transform="matrix(1,0,0,1.0943037,9.8994952,-46.996166)">
          <rect
             transform="scale(-1,1)"
             style="fill:#17280b;fill-opacity:1;stroke:#000000;stroke-width:4.97130632;stroke-linejoin:round;stroke-miterlimit:4;stroke-dasharray:none"
             id="rect4190"
             width="8.8388348"
             height="47.552933"
             x="-454.95532"
             y="499.58652"
             ry="2.6516504" />
          <rect
             transform="scale(-1,1)"
             ry="2.6516504"
             y="499.58652"
             x="-454.95532"
             height="47.552933"
             width="8.8388348"
             id="rect4115"
             style="fill:#17280b;fill-opacity:1;stroke:none" />
          <path
             inkscape:connector-curvature="0"
             id="path4223"
             d="m 446.12592,524.875 c 2.32777,1.60635 4.69058,2.60226 8.84375,2.21875 l 0,17.40625 c 0,1.46901 -1.18724,2.625 -2.65625,2.625 l -3.53125,0 c -1.46901,0 -2.65625,-1.15599 -2.65625,-2.625 l 0,-19.625 z"
             style="opacity:0.56194691;fill:#000000;fill-opacity:1;stroke:none" />
          <path
             transform="translate(-4.9229925e-6,0)"
             inkscape:connector-curvature="0"
             id="path4301"
             d="m 447.875,504.23718 c -0.25,8.125 -0.5,9.625 -0.25,10.25 0.25,0.625 4.75,1.125 5.5,0.125 0.75,-1 0.375,-9.375 0.125,-10.625 -0.25,-1.25 -4.125,-0.875 -4.625,-0.75 -0.5,0.125 -0.75,1 -0.75,1 z"
             style="fill:#39661c;fill-opacity:1;stroke:none" />
        </g>
        <g
           id="g4325"
           transform="matrix(1,0,0,1.0943037,-2.4748738,-46.289059)">
          <rect
             transform="scale(-1,1)"
             style="fill:#17280b;fill-opacity:1;stroke:#000000;stroke-width:4.97130632;stroke-linejoin:round;stroke-miterlimit:4;stroke-dasharray:none"
             id="rect4192"
             width="8.485281"
             height="48.260036"
             x="-531.49963"
             y="498.34906"
             ry="2.6516504" />
          <rect
             transform="scale(-1,1)"
             ry="2.6516504"
             y="498.34906"
             x="-531.49963"
             height="48.260036"
             width="8.485281"
             id="rect4117"
             style="fill:#17280b;fill-opacity:1;stroke:none" />
          <path
             inkscape:connector-curvature="0"
             id="path4221"
             d="m 523.00092,524.75 c 1.69118,0.45142 3.94728,2.26286 8.5,1.78125 l 0,17.4375 c 0,1.46901 -1.18724,2.625 -2.65625,2.625 l -3.1875,0 c -1.46901,0 -2.65625,-1.15599 -2.65625,-2.625 l 0,-19.21875 z"
             style="opacity:0.56194691;fill:#000000;fill-opacity:1;stroke:none" />
          <path
             transform="translate(-4.9229925e-6,0)"
             inkscape:connector-curvature="0"
             id="path4303"
             d="m 527,502.11218 c -3.125,0.875 -2.25,6.625 -2.25,8.625 0,2 2.125,3.375 3.125,3.375 1,0 1.75,-0.75 2,-1.875 0.25,-1.125 0.625,-7.875 0,-9 -0.625,-1.125 -2.875,-1.125 -2.875,-1.125 z"
             style="fill:#39661c;fill-opacity:1;stroke:none" />
        </g>
      </g>
    </g>
    <g
       inkscape:export-ydpi="67.716446"
       inkscape:export-xdpi="67.716446"
       inkscape:export-filename="C:\Users\Robert\Desktop\weapons-pack\pngs\bazooka.png"
       id="g20313"
       transform="matrix(-0.90299072,0,0,0.90299072,623.70701,-247.18209)">
      <path
         style="color:#000000;fill:#3f711f;fill-opacity:1;fill-rule:nonzero;stroke:#000000;stroke-width:7.95602274;stroke-linejoin:round;marker:none;visibility:visible;display:inline;overflow:visible;enable-background:accumulate"
         d="m 661.45716,516.83102 c -3.0615,0.54224 -7.89133,11.88472 -7.89133,11.88472 0,0 2.46001,59.23864 3.6408,60.3889 1.18081,1.15027 5.90402,13.80319 5.90402,13.80319 l 10.82401,-16.48715 c 0,0 -1.96801,-25.30582 -1.37761,-27.79806 0.59041,-2.49223 1.968,-18.97937 0.984,-20.70476 -0.984,-1.72539 -6.2976,-11.88607 -7.2816,-13.41977 -0.984,-1.53367 -4.80229,-7.66707 -4.80229,-7.66707 z"
         id="path20315"
         inkscape:connector-curvature="0" />
      <g
         id="g20317"
         transform="matrix(1.5383338,0,0,1.5383338,-514.44201,-243.80385)"
         inkscape:export-filename="C:\Users\Robert\Desktop\weapons-pack\pngs\bazooka.png"
         inkscape:export-xdpi="67.165398"
         inkscape:export-ydpi="67.165398">
        <path
           sodipodi:nodetypes="ccscc"
           inkscape:connector-curvature="0"
           id="path20319"
           d="m 675.74944,544.66456 c 0.35355,4.41942 0,10.25305 0,10.25305 0,0 -1.41421,0.88388 -4.59619,-0.88389 -3.18198,-1.76776 -4.24264,-9.54594 -4.24264,-9.54594 z"
           style="fill:#447821;fill-opacity:1;stroke:#000000;stroke-width:5.2004323;stroke-linejoin:round;stroke-miterlimit:4;stroke-dasharray:none" />
        <path
           sodipodi:nodetypes="cssssc"
           transform="translate(-4.9229925e-6,0)"
           inkscape:connector-curvature="0"
           id="path20321"
           d="m 721.75,553.86218 c 4.75,-3.625 5,-10.5 5.375,-13.125 0.375,-2.625 4.5,-4.5 7.375,-2.375 2.875,2.125 -1.875,11.75 -5,14.125 -3.125,2.375 -3.125,2.5 -5,2.5 -1.875,0 -2.75,-1.125 -2.75,-1.125 z"
           style="fill:#333333;fill-opacity:1;stroke:#000000;stroke-width:5.2004323;stroke-linejoin:round;stroke-miterlimit:4;stroke-opacity:1;stroke-dasharray:none;stroke-dashoffset:0" />
        <g
           transform="translate(-6.7500002,0)"
           id="g20323">
          <path
             inkscape:connector-curvature="0"
             style="fill:#39661c;fill-opacity:1;stroke:#000000;stroke-width:5.2004323;stroke-linejoin:round;stroke-miterlimit:4;stroke-dasharray:none"
             d="m 711.78125,537.875 c 2.05859,3.75391 -0.7934,44.7709 0.0312,48.03125 0.005,0.0205 0.0265,0.0445 0.0312,0.0625 0.0204,0.0579 0.0381,0.13927 0.0625,0.15625 1.4375,1 3.96875,2.04688 6.875,2.625 2.90625,0.57812 6.1875,0.6875 9.125,-0.25 0.68381,-0.21824 0.9882,-1.77182 1.0625,-3.96875 3.2e-4,-0.01 -3.1e-4,-0.0215 0,-0.0312 0.0177,-0.54403 0.0405,-1.13518 0.0312,-1.75 -1.6e-4,-0.01 1.6e-4,-0.0213 0,-0.0312 -0.01,-0.61696 -0.0298,-1.2695 -0.0625,-1.9375 -4.9e-4,-0.01 5e-4,-0.0213 0,-0.0312 -0.13378,-2.70794 -0.46887,-5.74309 -0.8125,-8.46875 -0.001,-0.0111 10e-4,-0.0202 0,-0.0312 -0.17118,-1.35552 -0.35778,-2.63353 -0.53125,-3.75 -0.002,-0.0121 0.002,-0.0191 0,-0.0312 -0.34955,-2.24591 -0.65625,-3.8125 -0.8125,-4.09375 -0.154,-0.2772 -0.481,-0.66169 -0.875,-1.125 -0.004,-0.005 0.004,-0.0261 0,-0.0312 -0.40234,-0.47266 -0.89063,-1.01563 -1.40625,-1.65625 -0.25781,-0.32031 -0.52002,-0.67334 -0.78125,-1.03125 -0.78369,-1.07373 -1.54688,-2.29688 -2.0625,-3.65625 -0.51267,-1.35158 -0.75338,-3.14589 -0.78125,-4.96875 -1.4e-4,-0.0104 1.3e-4,-0.0209 0,-0.0312 -0.0169,-1.21219 0.0743,-2.44207 0.21875,-3.59375 10e-4,-0.0105 -0.001,-0.0208 0,-0.0312 0.22046,-1.74023 0.59375,-3.26563 1.0625,-4.25 1.25,-2.625 2.25,-5.5 2.25,-5.5 l -12.625,-0.625 z"
             transform="translate(-4.9229925e-6,0)"
             id="path20325" />
          <g
             id="g20327">
            <path
               sodipodi:nodetypes="cssssscc"
               inkscape:connector-curvature="0"
               id="path20329"
               d="m 711.78217,537.86218 c 2.125,3.875 -0.98018,47.48118 0.125,48.25 2.875,2 10.125,4.25 16,2.375 2.74923,-0.87741 -0.5,-23 -1.125,-24.125 -0.625,-1.125 -3.75,-3.875 -5.125,-7.5 -1.375,-3.625 -0.75,-10.25 0.5,-12.875 1.25,-2.625 2.25,-5.5 2.25,-5.5 z"
               style="fill:#39661c;fill-opacity:1;stroke:none" />
            <path
               inkscape:connector-curvature="0"
               id="path20331"
               transform="translate(-4.9229925e-6,0)"
               d="m 720.375,541.46875 c -1.59099,11.84404 -1.87565,10.93934 -0.90625,16.28125 0.65487,3.60867 3.64464,6.48161 4.4375,10.0625 1.13401,5.12166 3.5879,11.62776 0.34375,15.75 -2.05146,2.60672 -6.4117,1.83517 -9.71875,2.09375 -0.78727,0.0616 -1.74339,0.055 -2.75,0.0312 0.0347,0.22558 0.0719,0.40056 0.125,0.4375 2.875,2 10.125,4.25 16,2.375 2.74923,-0.87741 -0.5,-23 -1.125,-24.125 -0.625,-1.125 -3.75,-3.875 -5.125,-7.5 -1.375,-3.625 -0.75,-10.25 0.5,-12.875 0.23748,-0.49871 0.44196,-1.00467 0.65625,-1.5 -1.04447,-0.44208 -2.4375,-1.03125 -2.4375,-1.03125 z"
               style="opacity:0.3495575;fill:#000000;fill-opacity:1;stroke:none" />
            <path
               transform="translate(-4.9229925e-6,0)"
               inkscape:connector-curvature="0"
               id="path20333"
               d="m 714.70818,547.84149 c -0.35355,8.83884 -1.06066,32.17336 -0.53033,33.76435 0.53033,1.59099 0.70711,1.94454 2.12132,1.94454 1.41422,0 2.65165,-1.41421 1.94455,-3.53553 -0.70711,-2.12132 -1.76777,-27.93072 -1.41422,-30.22881 0.35356,-2.2981 0.35356,-2.65165 0.35356,-2.65165 z"
               style="opacity:0.17256637;fill:#ffffff;fill-opacity:1;stroke:none" />
          </g>
        </g>
        <path
           style="fill:#000000;fill-opacity:1;stroke:#000000;stroke-width:5.2004323;stroke-linejoin:round;stroke-miterlimit:4;stroke-dasharray:none"
           d="m 775.27472,502.23816 c 2.12132,0.20764 4.06586,0.62296 4.59619,1.45356 0.53033,0.83062 1.41422,36.9622 0,39.03873 -1.41421,2.07653 -5.83363,1.45357 -5.83363,1.45357 z"
           id="path20335"
           inkscape:connector-curvature="0" />
        <path
           inkscape:connector-curvature="0"
           id="path20337"
           d="m 775.27472,502.23816 c 2.12132,0.20764 4.06586,0.62296 4.59619,1.45356 0.53033,0.83062 1.41422,36.9622 0,39.03873 -1.41421,2.07653 -5.83363,1.45357 -5.83363,1.45357 z"
           style="fill:#333333;fill-opacity:1;stroke:none" />
        <g
           transform="matrix(-1,0,0,1,1119.2822,4.5000001)"
           id="g20339">
          <g
             id="g20341">
            <path
               style="fill:#39661c;fill-opacity:1;stroke:#000000;stroke-width:5.2004323;stroke-linejoin:round;stroke-miterlimit:4;stroke-dasharray:none"
               d="m 648.75,544.61218 c -24.75,14.5 -24.25,38.75 -28.75,43.25 -4.5,4.5 -12.67157,2.2981 -15.5,0 -2.2981,-4.50781 5.09099,-24.32322 6.59099,-29.32322 1.5,-5 1.58579,-8.20711 0.58579,-12.70711 -1,-4.5 -4.71231,-9.15165 -4.71231,-9.15165 L 633.5,526.36218 l 19,10 z"
               id="path20343"
               inkscape:connector-curvature="0"
               transform="translate(-4.9229925e-6,0)"
               sodipodi:nodetypes="cscsscccc" />
            <path
               sodipodi:nodetypes="cscsscccc"
               transform="translate(-4.9229925e-6,0)"
               inkscape:connector-curvature="0"
               id="path20345"
               d="m 648.75,544.61218 c -24.75,14.5 -24.25,38.75 -28.75,43.25 -4.5,4.5 -12.67157,2.2981 -15.5,0 -2.2981,-4.50781 5.09099,-24.32322 6.59099,-29.32322 1.5,-5 1.58579,-8.20711 0.58579,-12.70711 -1,-4.5 -4.71231,-9.15165 -4.71231,-9.15165 L 633.5,526.36218 l 19,10 z"
               style="fill:#4d4d4d;fill-opacity:1;stroke:none" />
            <path
               inkscape:connector-curvature="0"
               id="path20347"
               transform="translate(-4.9229925e-6,0)"
               d="m 644.625,532.21875 -10.53125,2 c 1.59099,14.31891 -13.70697,20.48679 -18.21875,31.84375 -2.50642,6.30909 -5.45711,16.77605 -4.75,19.78125 0.32289,1.37228 0.77628,3.19282 2,4.625 2.49784,-0.0257 4.99993,-0.71868 6.875,-2.59375 4.5,-4.5 4,-28.75 28.75,-43.25 l 3.75,-8.25 -7.875,-4.15625 z"
               style="opacity:0.26548671;fill:#000000;fill-opacity:1;stroke:none" />
          </g>
        </g>
        <g
           transform="matrix(-1,0,0,1,1119.2822,-3.535534)"
           id="g20349">
          <g
             id="g20351">
            <path
               style="fill:#677821;fill-opacity:1;stroke:#000000;stroke-width:5.2004323;stroke-linejoin:round;stroke-miterlimit:4;stroke-dasharray:none"
               d="m 439.75,493.98718 40,0 0,9.25 -45.625,0 c 0,0 -0.75,-9.375 5.625,-9.25 z"
               id="path20353"
               inkscape:connector-curvature="0"
               sodipodi:nodetypes="ccccc" />
            <path
               style="fill:#677821;fill-opacity:1;stroke:#000000;stroke-width:5.2004323;stroke-linejoin:round;stroke-miterlimit:4;stroke-dasharray:none"
               d="m 377.59502,502.76849 c 0,0 -0.7071,-3.88909 0.17678,-4.41942 0.88388,-0.53033 33.76435,0.53033 34.82501,0.53033 1.06066,0 2.12132,1.76776 2.12132,3.35876 0,1.59099 0,1.59099 0,1.59099 z"
               id="path20355"
               inkscape:connector-curvature="0" />
            <path
               sodipodi:nodetypes="ccccc"
               inkscape:connector-curvature="0"
               id="path20357"
               d="m 439.75,493.98718 40,0 0,9.25 -45.625,0 c 0,0 -0.75,-9.375 5.625,-9.25 z"
               style="fill:#677821;fill-opacity:1;stroke:none" />
            <path
               inkscape:connector-curvature="0"
               id="path20359"
               d="m 377.59502,502.76849 c 0,0 -0.7071,-3.88909 0.17678,-4.41942 0.88388,-0.53033 33.76435,0.53033 34.82501,0.53033 1.06066,0 2.12132,1.76776 2.12132,3.35876 0,1.59099 0,1.59099 0,1.59099 z"
               style="fill:#677821;fill-opacity:1;stroke:none" />
          </g>
          <path
             style="opacity:0.62389377;fill:#ffffff;fill-opacity:1;stroke:none"
             d="m 435.75,500.11218 c 3.625,-3.75 2.875,-4.375 12.25,-4.375 9.375,0 25.125,0.25 25.125,0.25 l 0.375,2.375 c 0,0 -30.75,-1.125 -32.375,-0.625 -1.625,0.5 -5.375,2.375 -5.375,2.375 z"
             id="path20361"
             inkscape:connector-curvature="0"
             transform="translate(-4.9229925e-6,0)" />
        </g>
        <g
           transform="matrix(-1,0,0,1,1119.2822,0)"
           id="g20363">
          <path
             sodipodi:nodetypes="ccccccc"
             inkscape:connector-curvature="0"
             id="path20365"
             d="m 734.15362,500.11683 c 10.07627,-3.71231 25.72101,-11.40209 25.72101,-11.40209 l 9.98788,0.0884 c 9.72272,0.70711 8.3085,69.29646 0,69.47324 l -9.19239,0 -25.66939,-14.82023 z"
             style="fill:#39661c;fill-opacity:1;stroke:#000000;stroke-width:5.2004323;stroke-linejoin:round;stroke-miterlimit:4;stroke-dasharray:none" />
          <path
             style="fill:#483737;fill-opacity:1;stroke:none"
             d="m 734.15362,500.11683 c 10.07627,-3.71231 25.72101,-11.40209 25.72101,-11.40209 l 9.98788,0.0884 c 9.72272,0.70711 8.3085,69.29646 0,69.47324 l -9.19239,0 -25.66939,-14.82023 z"
             id="path20367"
             inkscape:connector-curvature="0"
             sodipodi:nodetypes="ccccccc" />
          <path
             style="opacity:0.4557522;fill:#000000;fill-opacity:1;stroke:none"
             d="m 761.5,488.71875 c 6.06083,16.11601 5.79899,56.55666 -0.4375,69.5625 l 8.8125,0 c 8.3085,-0.17678 9.72272,-68.76164 0,-69.46875 l -8.375,-0.0937 z"
             id="path20369"
             inkscape:connector-curvature="0" />
          <path
             style="opacity:0.42307691;fill:#000000;fill-opacity:1;stroke:none"
             d="m 764.5625,502.40625 c 2.56503,18.96289 1.36178,45.73605 -3.5,55.875 l 8.8125,0 c 3.15014,-0.067 5.31324,-9.97459 6.25,-22.28125 -3.93212,-3.56898 -6.38423,7.58128 -7.6875,3.37069 -2.2981,-7.42462 -1.24204,-30.59312 -2.65625,-32.71444 -0.64929,-0.97393 -0.71829,-2.83899 -1.21875,-4.25 z"
             transform="translate(-4.9229925e-6,0)"
             id="path20371"
             inkscape:connector-curvature="0"
             sodipodi:nodetypes="ccccssc" />
          <path
             style="opacity:0.42307691;fill:#ffffff;fill-opacity:1;stroke:none"
             d="m 764.55921,494.10138 c 2.82843,-1.06066 7.42462,-0.88389 7.95495,0.7071 0.53033,1.59099 1.41421,3.35876 0.53033,3.71231 -0.88388,0.35356 -6.18718,0.35356 -7.24784,0.35356 -1.06066,0 -1.23744,-4.77297 -1.23744,-4.77297 z"
             id="path20373"
             inkscape:connector-curvature="0"
             transform="translate(-4.9229925e-6,0)" />
          <path
             id="path20375"
             transform="matrix(-1,0,0,1,1119.2822,0)"
             d="m 378.96875,522.03125 c -0.13161,-0.0128 -3.97438,7.75118 -8.15625,9.1875 -9.54595,1.23711 -9.02452,-10.24048 -17.15625,1.25 0,0 8.2e-4,0.14849 0,0.15625 0.55282,10.73823 2.0544,20.42576 4.5625,25.65625 l 0.40625,0 25.65625,-14.8125 0.34375,-16.9375 c -2.21769,-2.50176 -4.324,-4.37085 -5.65625,-4.5 z"
             style="opacity:0.42307691;fill:#000000;fill-opacity:1;stroke:none"
             inkscape:connector-curvature="0" />
          <path
             style="opacity:0.26442309;fill:#ffffff;fill-opacity:1;stroke:none"
             d="m 738.74981,503.11699 c 14.31891,-4.5962 17.5009,-6.54074 19.26866,-5.83363 1.76777,0.7071 1.94455,4.41941 1.94455,4.41941 0,0 -18.208,4.94975 -19.79899,5.65686 -1.59099,0.70711 -4.41942,-1.06066 -4.41942,-2.2981 0,-1.23743 3.0052,-1.94454 3.0052,-1.94454 z"
             id="path20377"
             inkscape:connector-curvature="0"
             transform="translate(-4.9229925e-6,0)" />
        </g>
        <path
           style="fill:#39661c;fill-opacity:1;stroke:#000000;stroke-width:5.2004323;stroke-miterlimit:4;stroke-dasharray:none"
           d="m 763.72511,501.17749 -375.5686,0 c -8.03604,0.10143 -6.00016,41.02501 0,41.36575 l 375.5686,0 c 5.75,0.25 5.125,-41.36575 0,-41.36575 z"
           id="path20379"
           inkscape:connector-curvature="0"
           sodipodi:nodetypes="ccccc" />
        <g
           transform="translate(0,-1.2374369)"
           id="g20381">
          <path
             inkscape:connector-curvature="0"
             id="path20383"
             d="m 536.48862,546.07878 c 0.17677,2.82843 0.53033,3.35876 -0.35356,4.41942 -0.88388,1.06066 -76.89786,2.82842 -77.60497,2.12132 -0.7071,-0.70711 0.35356,-1.76777 0.35356,-1.76777 l -10.60661,-0.35355 -0.35355,-4.06587 87.50447,0 z"
             style="fill:#17280b;fill-opacity:1;stroke:#000000;stroke-width:5.2004323;stroke-linejoin:round;stroke-miterlimit:4;stroke-dasharray:none" />
          <path
             style="opacity:0.78761058;fill:#17280b;fill-opacity:1;stroke:none"
             d="m 536.48862,546.07878 c 0.17677,2.82843 0.53033,3.35876 -0.35356,4.41942 -0.88388,1.06066 -76.89786,2.82842 -77.60497,2.12132 -0.7071,-0.70711 0.35356,-1.76777 0.35356,-1.76777 l -10.60661,-0.35355 -0.35355,-4.06587 87.50447,0 z"
             id="path20385"
             inkscape:connector-curvature="0" />
        </g>
        <path
           style="fill:#cccccc;fill-opacity:1;stroke:#000000;stroke-width:5.2004323;stroke-linejoin:round;stroke-miterlimit:4;stroke-dasharray:none"
           d="m 764.40295,494.45998 7.51301,-0.17678 4.50781,4.94975 1.41421,19.0035 -0.44194,20.59448 -4.41942,12.19759 -6.89429,0 3.88909,-11.84404 0.70711,-21.74353 -1.41422,-17.85445 z"
           id="path20387"
           inkscape:connector-curvature="0" />
        <path
           sodipodi:nodetypes="ccccc"
           inkscape:connector-curvature="0"
           id="path20389"
           d="m 763.72511,501.17749 -375.5686,0 c -8.03604,0.10143 -6.00016,41.02501 0,41.36575 l 375.5686,0 c 5.75,0.25 5.125,-41.36575 0,-41.36575 z"
           style="fill:#3f711f;fill-opacity:1;stroke:none" />
        <path
           sodipodi:nodetypes="cssscc"
           inkscape:connector-curvature="0"
           id="path20391"
           transform="translate(-4.9229925e-6,0)"
           d="m 384.98689,501.1875 c -1.24923,3.62879 -1.52995,6.6467 0.0312,7.6875 3,2 203.98186,2.5 211.48186,2.5 7.5,0 23.5,2 23.5,-7 0,-1.02621 -0.0641,-2.10552 -0.15625,-3.1875 z"
           style="opacity:0.26991152;fill:#000000;fill-opacity:1;stroke:none" />
        <path
           inkscape:connector-curvature="0"
           id="path20393"
           d="m 764.40295,494.45998 7.51301,-0.17678 4.50781,4.94975 1.41421,19.0035 -0.44194,20.59448 -4.41942,12.19759 -6.89429,0 3.88909,-11.84404 0.70711,-21.74353 -1.41422,-17.85445 z"
           style="fill:#cccccc;fill-opacity:1;stroke:none" />
        <path
           transform="translate(-4.9229925e-6,0)"
           style="fill:#39661c;fill-opacity:1;stroke:#000000;stroke-width:5;stroke-linejoin:round;stroke-miterlimit:4;stroke-dasharray:none"
           d="m 400.15165,509.36218 13.6967,0 c 1.46901,0 3.37185,1.3713 2.65165,2.65165 -1.125,2 -0.875,13.3217 0,13.6967 1.35024,0.57868 -1.18264,2.65165 -2.65165,2.65165 l -13.6967,0 c -1.46901,0 -1.79155,-1.46075 -2.65165,-2.65165 -1.625,-2.25 -0.625,-11.8217 0,-13.6967 0.46454,-1.39363 1.18264,-2.65165 2.65165,-2.65165 z"
           id="path20395"
           inkscape:connector-curvature="0"
           sodipodi:nodetypes="sssssssss" />
        <path
           sodipodi:nodetypes="sssssssss"
           inkscape:connector-curvature="0"
           id="path20397"
           d="m 400.15165,509.36218 13.6967,0 c 1.46901,0 3.37185,1.3713 2.65165,2.65165 -1.125,2 -0.875,13.3217 0,13.6967 1.35024,0.57868 -1.18264,2.65165 -2.65165,2.65165 l -13.6967,0 c -1.46901,0 -1.79155,-1.46075 -2.65165,-2.65165 -1.625,-2.25 -0.625,-11.8217 0,-13.6967 0.46454,-1.39363 1.18264,-2.65165 2.65165,-2.65165 z"
           style="fill:#784421;fill-opacity:1;stroke:none"
           transform="translate(-4.9229925e-6,0)" />
        <path
           id="path20399"
           transform="translate(-4.9229925e-6,0)"
           d="m 399.53125,518.1875 c -0.89571,-0.003 -1.87089,0.0172 -2.84375,0.0312 -0.16602,3.06696 -0.0478,6.30881 0.8125,7.5 0.8601,1.1909 1.18724,2.65625 2.65625,2.65625 l 13.6875,0 c 1.46901,0 4.00649,-2.07757 2.65625,-2.65625 -0.4827,-0.20687 -0.77362,-3.75188 -0.75,-7.21875 -0.85252,-0.0485 -2.26328,-0.125 -2.375,-0.125 -0.5,0 -0.125,0.625 -0.5,1.25 -0.375,0.625 -1.875,1 -3.25,0.5 -1.375,-0.5 1.875,-2 -1.125,-1.875 -2.25,0.0937 -5.27734,-0.0508 -8.96875,-0.0625 z"
           style="opacity:0.41592922;fill:#000000;fill-opacity:1;stroke:none"
           inkscape:connector-curvature="0" />
        <path
           style="fill:#ffff00;fill-opacity:1;stroke:#000000;stroke-width:3.25027037;stroke-miterlimit:4;stroke-dasharray:none"
           d="m 613.25,501.1875 c 1,1.25 1,37.09375 0,41.34375 l 7.75,0 c 2.25,-1.5 1.5,-40.34375 0,-41.34375 z"
           transform="translate(-4.9229925e-6,0)"
           id="path20401"
           inkscape:connector-curvature="0"
           sodipodi:nodetypes="ccccc" />
        <path
           sodipodi:nodetypes="ccccc"
           inkscape:connector-curvature="0"
           id="path20403"
           transform="translate(-4.9229925e-6,0)"
           d="m 613.25,501.1875 c 1,1.25 1,37.09375 0,41.34375 l 7.75,0 c 2.25,-1.5 1.5,-40.34375 0,-41.34375 z"
           style="fill:#ffff00;fill-opacity:1;stroke:none" />
        <rect
           ry="2.6516504"
           transform="translate(-4.9229925e-6,0)"
           y="514.25391"
           x="539.52246"
           height="7.4246211"
           width="62.578949"
           id="rect20405"
           style="opacity:0.10576926;fill:#ffffff;fill-opacity:1;stroke:none" />
        <rect
           style="opacity:0.10576926;fill:#ffffff;fill-opacity:1;stroke:none"
           id="rect20407"
           width="27.22361"
           height="7.4246211"
           x="473.40796"
           y="514.25391"
           ry="2.6516504" />
        <rect
           ry="2.6516504"
           y="514.25391"
           x="423.55692"
           height="7.4246211"
           width="13.081474"
           id="rect20409"
           style="opacity:0.10576926;fill:#ffffff;fill-opacity:1;stroke:none" />
        <rect
           style="opacity:0.10576926;fill:#ffffff;fill-opacity:1;stroke:none"
           id="rect20411"
           width="112.82895"
           height="6.3425112"
           x="630.02246"
           y="514.44141"
           ry="2.2651825" />
        <path
           id="path20413"
           transform="translate(-4.9229925e-6,0)"
           d="m 771.90625,494.28125 -7.5,0.1875 4.84375,5.125 0,0.0312 c 2.76609,-0.0864 5.07793,-0.14018 7.21875,-0.1875 l -0.0312,-0.21875 -4.53125,-4.9375 z"
           style="opacity:0.3539823;fill:#000000;fill-opacity:1;stroke:none"
           inkscape:connector-curvature="0" />
        <path
           id="path20415"
           transform="translate(-4.9229925e-6,0)"
           d="m 770.6875,517.25 0,0.1875 -0.71875,21.5625 7.375,0 0.0625,-0.15625 0.4375,-20.59375 -0.0625,-1 -7.09375,0 z"
           style="opacity:0.6017699;fill:#000000;fill-opacity:1;stroke:none"
           inkscape:connector-curvature="0" />
        <path
           sodipodi:nodetypes="cccccc"
           inkscape:connector-curvature="0"
           id="path20417"
           transform="translate(-4.9229925e-6,0)"
           d="m 769.21875,539 0,0.1875 -3.875,11.84375 8.625,0 4.375,-12.03125 z"
           style="opacity:0.82743363;fill:#000000;fill-opacity:1;stroke:none" />
        <path
           id="path20419"
           transform="translate(-4.9229925e-6,0)"
           d="m 752.59375,501.1875 c 3.7206,7.60143 4.11322,18.03052 2.3125,27.125 -24.37119,0.69124 -46.53359,-2.71118 -67.90625,-4.9375 -24,-2.5 -71.5,11 -86,12 -13.59375,0.9375 -142.3429,-12.68738 -204.46875,-12.65625 -4.14172,0.002 -7.84375,0.0625 -11.03125,0.15625 0,0 -1.9522,0.28679 -2.53125,0.375 0.05,1.22193 0.12208,2.43366 0.21875,3.625 0.0863,1.06389 0.19076,2.1113 0.3125,3.125 0.0451,0.37564 0.10643,0.72729 0.15625,1.09375 0.19211,1.41312 0.39727,2.76814 0.65625,4 0.0604,0.28485 0.12368,0.57092 0.1875,0.84375 0.0433,0.18624 0.11142,0.38222 0.15625,0.5625 0.11122,0.44726 0.22308,0.87367 0.34375,1.28125 0.0827,0.27661 0.16312,0.5559 0.25,0.8125 0.0382,0.11346 0.086,0.2344 0.125,0.34375 0.12982,0.36362 0.26757,0.71587 0.40625,1.03125 0.13868,0.31538 0.25901,0.58087 0.40625,0.84375 0.12829,0.22955 0.27179,0.43805 0.40625,0.625 0.14077,0.19487 0.29007,0.35522 0.4375,0.5 0.0245,0.0244 0.0378,0.0708 0.0625,0.0937 0.0521,0.0476 0.10337,0.0839 0.15625,0.125 0.1183,0.093 0.22164,0.19055 0.34375,0.25 0.007,0.004 0.024,-0.003 0.0312,0 0.081,0.0377 0.16739,0.0714 0.25,0.0937 0.096,0.0269 0.18305,0.0257 0.28125,0.0312 l 361.375,0 14.1875,0 c 5.75,0.25 5.125,-41.34375 0,-41.34375 l -11.125,0 z"
           style="opacity:0.28088493;fill:#000000;fill-opacity:1;stroke:none"
           inkscape:connector-curvature="0" />
        <g
           transform="matrix(1,0,0,1.0943037,9.8994952,-46.996166)"
           id="g20421">
          <rect
             ry="2.6516504"
             y="499.58652"
             x="-454.95532"
             height="47.552933"
             width="8.8388348"
             id="rect20423"
             style="fill:#17280b;fill-opacity:1;stroke:#000000;stroke-width:4.97130632;stroke-linejoin:round;stroke-miterlimit:4;stroke-dasharray:none"
             transform="scale(-1,1)" />
          <rect
             style="fill:#17280b;fill-opacity:1;stroke:none"
             id="rect20425"
             width="8.8388348"
             height="47.552933"
             x="-454.95532"
             y="499.58652"
             ry="2.6516504"
             transform="scale(-1,1)" />
          <path
             style="opacity:0.56194691;fill:#000000;fill-opacity:1;stroke:none"
             d="m 446.12592,524.875 c 2.32777,1.60635 4.69058,2.60226 8.84375,2.21875 l 0,17.40625 c 0,1.46901 -1.18724,2.625 -2.65625,2.625 l -3.53125,0 c -1.46901,0 -2.65625,-1.15599 -2.65625,-2.625 l 0,-19.625 z"
             id="path20427"
             inkscape:connector-curvature="0" />
          <path
             style="fill:#39661c;fill-opacity:1;stroke:none"
             d="m 447.875,504.23718 c -0.25,8.125 -0.5,9.625 -0.25,10.25 0.25,0.625 4.75,1.125 5.5,0.125 0.75,-1 0.375,-9.375 0.125,-10.625 -0.25,-1.25 -4.125,-0.875 -4.625,-0.75 -0.5,0.125 -0.75,1 -0.75,1 z"
             id="path20429"
             inkscape:connector-curvature="0"
             transform="translate(-4.9229925e-6,0)" />
        </g>
        <g
           transform="matrix(1,0,0,1.0943037,-2.4748738,-46.289059)"
           id="g20431">
          <rect
             ry="2.6516504"
             y="498.34906"
             x="-531.49963"
             height="48.260036"
             width="8.485281"
             id="rect20433"
             style="fill:#17280b;fill-opacity:1;stroke:#000000;stroke-width:4.97130632;stroke-linejoin:round;stroke-miterlimit:4;stroke-dasharray:none"
             transform="scale(-1,1)" />
          <rect
             style="fill:#17280b;fill-opacity:1;stroke:none"
             id="rect20435"
             width="8.485281"
             height="48.260036"
             x="-531.49963"
             y="498.34906"
             ry="2.6516504"
             transform="scale(-1,1)" />
          <path
             style="opacity:0.56194691;fill:#000000;fill-opacity:1;stroke:none"
             d="m 523.00092,524.75 c 1.69118,0.45142 3.94728,2.26286 8.5,1.78125 l 0,17.4375 c 0,1.46901 -1.18724,2.625 -2.65625,2.625 l -3.1875,0 c -1.46901,0 -2.65625,-1.15599 -2.65625,-2.625 l 0,-19.21875 z"
             id="path20437"
             inkscape:connector-curvature="0" />
          <path
             style="fill:#39661c;fill-opacity:1;stroke:none"
             d="m 527,502.11218 c -3.125,0.875 -2.25,6.625 -2.25,8.625 0,2 2.125,3.375 3.125,3.375 1,0 1.75,-0.75 2,-1.875 0.25,-1.125 0.625,-7.875 0,-9 -0.625,-1.125 -2.875,-1.125 -2.875,-1.125 z"
             id="path20439"
             inkscape:connector-curvature="0"
             transform="translate(-4.9229925e-6,0)" />
        </g>
      </g>
    </g>
    <path
       style="color:#000000;fill:#1a1a1a;fill-opacity:1;fill-rule:nonzero;stroke:#1a1a1a;stroke-width:7.18421459;stroke-linejoin:round;marker:none;visibility:visible;display:inline;overflow:visible;enable-background:accumulate"
       d="m 589,407.25 c 0,0 -21.75304,10.68697 -35.75,15.84375 l 0.0312,1.5 -3.96875,0 c -0.0855,-0.008 -0.16279,-0.0301 -0.25,-0.0312 l -94.8125,0 c -0.0524,-0.0929 -0.0969,-0.19318 -0.15625,-0.28125 -0.72294,-1.07185 -1.9481,-1.75 -3.34375,-1.75 l -4.21875,0 c -1.39565,0 -2.62081,0.67815 -3.34375,1.75 -0.0578,0.0858 -0.0738,0.19094 -0.125,0.28125 l -78.0625,0 c -0.0457,-0.16328 -0.0913,-0.34592 -0.15625,-0.5 -0.61028,-1.44768 -2.04397,-2.4375 -3.71875,-2.4375 l -3.71875,0 c -1.67478,0 -3.10847,0.98982 -3.71875,2.4375 -0.0646,0.15322 -0.0795,0.33769 -0.125,0.5 l -320.65625,0 c -1.26084,-2.74051 -4.334057,-8.96013 -6.5,-9.34375 0,0 7.3e-5,0.0311 0,0.0312 l -0.03125,0 -10.40625,-0.25 -2.125,2.34375 -4.15625,4.5 -0.03125,0.3125 c 0.00926,2e-4 0.021987,-2e-4 0.03125,0 l -0.3125,4.125 c -2.1321347,0.33541 -3.8662748,0.8866 -4.4375,1.78125 -0.736682,1.15382 -1.9644946,51.33423 0,54.21875 0.9767613,1.43421 2.976931,1.94631 4.75,2.09375 l 3.4375,9.4375 11.96875,0 -0.40625,-1.28125 0.25,0.40625 c 0,0 2.814626,-7.55199 4.4375,-10.90625 l 37.6875,0 c 1.135798,5.06148 4.977603,11.63423 7.84375,13.8125 4.34094,3.29911 4.332935,3.46875 6.9375,3.46875 2.604565,0 3.8125,-1.5625 3.8125,-1.5625 -5.470733,-4.17507 -6.617969,-11.27483 -7.1562,-15.71875 l 15.09375,0 c 0.128236,0.29562 0.240171,0.60699 0.375,0.90625 0.167066,0.37055 0.324791,0.72581 0.5,1.09375 0.0041,0.009 -0.0041,0.0225 0,0.0312 0.104438,0.22129 0.214821,0.45936 0.3125,0.71875 0.0036,0.01 -0.0036,0.0217 0,0.0312 0.0085,0.0223 0.02285,0.0399 0.03125,0.0625 0.01772,0.0478 0.01377,0.10723 0.03125,0.15625 0.07136,0.20135 0.151702,0.40517 0.21875,0.625 0.09574,0.31207 0.195345,0.6232 0.28125,0.96875 0.02097,0.0837 0.04213,0.16456 0.0625,0.25 0.102068,0.43078 0.195488,0.87225 0.28125,1.34375 0.01838,0.10031 0.01366,0.21065 0.03125,0.3125 0.08023,0.46789 0.155779,0.94043 0.21875,1.4375 0.0014,0.0144 -0.0014,0.0167 0,0.0312 0.100328,0.7999 0.19618,1.63119 0.25,2.46875 0.04884,0.84648 0.07437,1.68205 0.0625,2.53125 -1.35e-4,0.0104 1.45e-4,0.0209 0,0.0312 -0.0062,0.41417 -0.04054,0.84202 -0.0625,1.25 -0.01163,0.20858 -0.01528,0.41864 -0.03125,0.625 -0.01531,0.20165 -0.04296,0.39506 -0.0625,0.59375 -9.84e-4,0.0101 9.95e-4,0.0211 0,0.0312 -0.07992,0.80292 -0.190061,1.58122 -0.34375,2.3125 -0.002,0.01 0.002,0.0216 0,0.0312 -0.138713,0.65198 -0.329955,1.27976 -0.53125,1.84375 -0.02215,0.0617 -0.03955,0.127 -0.0625,0.1875 -0.0033,0.009 0.0033,0.0224 0,0.0312 -0.116474,0.30541 -0.242008,0.61005 -0.375,0.90625 -0.07081,0.15759 -0.143793,0.31404 -0.21875,0.46875 -0.07039,0.14569 -0.145073,0.29427 -0.21875,0.4375 -0.03866,0.0748 -0.0855,0.14467 -0.125,0.21875 -0.269725,0.50833 -0.543802,0.99403 -0.84375,1.46875 -0.08818,0.13888 -0.191313,0.27031 -0.28125,0.40625 -0.259615,0.39367 -0.513293,0.78912 -0.78125,1.15625 -0.005,0.007 0.005,0.0245 0,0.0312 -1.083903,1.48261 -2.228003,2.73842 -3.0625,3.71875 -0.0044,0.005 0.0044,0.0261 0,0.0312 -0.550357,0.647 -1.004,1.17595 -1.21875,1.5625 -0.20045,0.36081 -0.589577,2.37671 -1.03125,5.125 -0.03476,0.21741 -0.0583,0.33471 -0.09375,0.5625 -0.0019,0.0122 0.0019,0.019 0,0.0312 7e-4,0.007 0.0014,0.0228 0,0.0312 -0.484378,3.11595 -1.027592,7.12155 -1.40625,11.125 -9.89e-4,0.0104 9.87e-4,0.0208 0,0.0312 -0.09377,0.99339 -0.177055,1.99085 -0.25,2.96875 -0.07723,0.9834 -0.141042,1.9346 -0.1875,2.875 -5.03e-4,0.0101 4.99e-4,0.0211 0,0.0312 1.72e-4,0.007 3.4e-4,0.0243 0,0.0312 -0.09203,1.87542 -0.112379,3.62668 -0.0625,5.15625 3.11e-4,0.01 -3.17e-4,0.0215 0,0.0312 0.02532,0.75625 0.05631,1.46419 0.125,2.09375 0.001,0.009 -0.001,0.0219 0,0.0312 0.13984,1.26217 0.399963,2.23263 0.75,2.8125 0.0042,0.007 -0.0042,0.0242 0,0.0312 0.173345,0.27936 0.36143,0.45711 0.59375,0.53125 0.01245,0.005 0.01861,0.0272 0.03125,0.0312 3.060363,0.97671 6.386152,1.12688 9.5625,0.8125 0.529391,-0.0524 1.043537,-0.10963 1.5625,-0.1875 4.67067,-0.70087 8.84731,-2.37476 11.09375,-3.9375 0.0326,-0.0227 0.0663,-0.11209 0.0937,-0.1875 0.007,-0.0252 0.0249,-0.0651 0.0312,-0.0937 0.002,-0.008 -0.002,-0.0234 0,-0.0312 0.004,-0.0153 -0.004,-0.046 0,-0.0625 0.0298,-0.13769 0.0712,-0.2872 0.0937,-0.5 0.0517,-0.47556 0.0753,-1.26793 0.0937,-2.09375 1.7e-4,-0.009 -1.7e-4,-0.0225 0,-0.0312 0.076,-3.49143 -0.12197,-9.85961 -0.375,-17.28125 -0.019,-0.5564 -0.043,-1.18268 -0.0625,-1.75 -0.24014,-6.96243 -0.50561,-14.64843 -0.65625,-21.71875 -0.008,-0.36594 -0.0241,-0.70023 -0.0312,-1.0625 -0.0176,-0.89133 -0.0183,-1.72867 -0.0312,-2.59375 -0.0139,-0.93386 -0.0236,-1.85376 -0.0312,-2.75 -0.0285,-3.27374 -0.0177,-6.23397 0.0625,-8.78125 0.0185,-0.59079 0.0682,-1.05354 0.0937,-1.59375 l 245.375,0 0,3.6875 -8.90625,0 -1.46875,-0.5 c -0.24555,3.92898 -0.72781,4.65163 0.5,6.125 0.22666,0.27199 4.03745,0.59512 10.0625,0.90625 0.4917,1.58494 1.87282,2.71875 3.5,2.71875 l 4.4375,0 c 1.45008,0 2.67782,-0.90387 3.28125,-2.21875 5.5982,0.21707 11.75336,0.39476 18.4375,0.59375 1.27042,5.98732 1.12036,10.40089 -0.90625,17.15625 -2.08366,6.94551 -12.34854,34.45695 -9.15625,40.71875 2.90642,2.36147 9.8833,4.65545 15.84375,3.15625 0.0826,-0.0205 0.16779,-0.0405 0.25,-0.0625 0.10531,-0.0285 0.2079,-0.0628 0.3125,-0.0937 1.14075,-0.33317 2.23333,-0.81333 3.25,-1.46875 0.22179,-0.14331 0.44251,-0.30865 0.65625,-0.46875 0.42285,-0.31699 0.83152,-0.64402 1.21875,-1.03125 0.005,-0.005 -0.005,-0.0258 0,-0.0312 0.18998,-0.18998 0.38417,-0.38549 0.5625,-0.625 0.005,-0.007 -0.005,-0.0246 0,-0.0312 0.36158,-0.48921 0.73396,-1.07114 1.0625,-1.75 0.004,-0.008 -0.004,-0.0231 0,-0.0312 0.82785,-1.71779 1.56557,-4.01208 2.40625,-6.71875 0.003,-0.009 -0.003,-0.0223 0,-0.0312 0.67304,-2.16777 1.41665,-4.59694 2.28125,-7.21875 0.003,-0.009 -0.003,-0.0223 0,-0.0312 0.64887,-1.96636 1.38212,-4.04416 2.21875,-6.1875 0.003,-0.009 -0.003,-0.0225 0,-0.0312 1.11851,-2.86305 2.46627,-5.83567 4.0625,-8.875 0.004,-0.008 -0.004,-0.0233 0,-0.0312 1.19773,-2.27859 2.54728,-4.57564 4.09375,-6.875 0.005,-0.007 -0.005,-0.0243 0,-0.0312 0.51288,-0.76195 1.06878,-1.52193 1.625,-2.28125 0.005,-0.007 -0.005,-0.0246 0,-0.0312 0.55686,-0.75961 1.14725,-1.49549 1.75,-2.25 0.005,-0.006 -0.005,-0.0251 0,-0.0312 0.6035,-0.75488 1.25428,-1.50268 1.90625,-2.25 0.005,-0.006 -0.005,-0.0256 0,-0.0312 0.65272,-0.74764 1.35874,-1.48114 2.0625,-2.21875 0.005,-0.005 -0.005,-0.0259 0,-0.0312 0.70951,-0.74313 1.42359,-1.45706 2.1875,-2.1875 2.56009,-2.44789 5.48503,-4.78707 8.71875,-7.03125 6.13324,0.0863 11.56808,0.13797 15.3125,0.125 0.3912,0.15073 0.80972,0.25 1.25,0.25 0.0207,0.002 0.0417,-0.001 0.0625,0 0.0948,0.007 0.18467,0.0312 0.28125,0.0312 l 4.21875,0 c 0.0966,0 0.18641,-0.0246 0.28125,-0.0312 0.17927,-0.0125 0.35933,-0.0275 0.53125,-0.0625 1.53042,-0.20725 2.77293,-1.39536 3.125,-3 l 10.84375,-0.375 0.5,-5.625 -11.25,0 0,-3.6875 94.28125,0 c 0.24736,-0.014 0.48131,-0.0771 0.71875,-0.1875 0.01,-0.004 0.0525,0.006 0.0625,0 0.12403,-0.0604 0.22928,-0.15618 0.34375,-0.25 0.0406,-0.0287 0.0847,-0.0623 0.125,-0.0937 0.0734,-0.0571 0.14635,-0.1214 0.21875,-0.1875 0.88558,-0.8127 1.66546,-2.31254 2.375,-4.28125 0.0512,-0.14357 0.13601,-0.31878 0.1875,-0.46875 0.40063,-1.18334 0.79083,-2.53419 1.125,-4 l 0.21875,10.71875 0,0.0312 35.625,20.5625 0.0312,0 0.53125,0 12.25,0 c 0.13725,-0.003 0.27172,-0.002 0.40625,-0.0312 0.0312,-0.007 0.0627,-0.023 0.0937,-0.0312 0.0102,-0.003 0.0211,0.003 0.0312,0 0.0213,-0.006 0.0413,-0.0246 0.0625,-0.0312 0.009,-0.003 0.0221,0.003 0.0312,0 0.0597,-0.0196 0.12835,-0.0378 0.1875,-0.0625 0.076,-0.0318 0.14371,-0.0847 0.21875,-0.125 0.0492,-0.027 0.10746,-0.0632 0.15625,-0.0937 0.1173,-0.0731 0.25998,-0.1565 0.375,-0.25 0.0107,-0.009 0.0206,-0.0223 0.0312,-0.0312 0.0328,-0.0272 0.0612,-0.0649 0.0937,-0.0937 0.0905,-0.0809 0.19222,-0.1567 0.28125,-0.25 0.0306,-0.0319 0.0634,-0.0604 0.0937,-0.0937 0.0853,-0.0941 0.16605,-0.20714 0.25,-0.3125 0.008,-0.0103 0.0231,-0.0209 0.0312,-0.0312 0.23582,-0.29993 0.46257,-0.64556 0.6875,-1.03125 0.13586,-0.23257 0.2744,-0.48757 0.40625,-0.75 0.004,-0.008 -0.004,-0.0231 0,-0.0312 0.0763,-0.15273 0.14381,-0.30628 0.21875,-0.46875 0.006,-0.0125 0.0255,-0.0187 0.0312,-0.0312 0.0575,-0.12578 0.13081,-0.27484 0.1875,-0.40625 0.15749,-0.36601 0.31753,-0.74806 0.46875,-1.15625 0.393,-1.05864 0.74372,-2.27491 1.09375,-3.59375 0.0159,-0.0601 0.0467,-0.1269 0.0625,-0.1875 0.22365,-0.85571 0.45076,-1.76805 0.65625,-2.71875 0.12677,-0.58744 0.25526,-1.22293 0.375,-1.84375 0.0861,-0.44686 0.16757,-0.91188 0.25,-1.375 0.0659,-0.37097 0.12394,-0.77531 0.1875,-1.15625 0.12571,-0.75436 0.25863,-1.55292 0.375,-2.34375 0.0178,-0.12154 0.0449,-0.25265 0.0625,-0.375 0.15737,-1.09103 0.29792,-2.22366 0.4375,-3.375 0.0944,-0.78021 0.19507,-1.60155 0.28125,-2.40625 0.0539,-0.50359 0.10565,-1.05018 0.15625,-1.5625 0.13315,-1.35017 0.23344,-2.72211 0.34375,-4.125 0.0151,-0.19182 0.0478,-0.36982 0.0625,-0.5625 -0.0117,-0.0106 -0.0196,-0.0209 -0.0312,-0.0312 0.009,-0.12353 0.022,-0.25112 0.0312,-0.375 0.008,-0.11366 0.023,-0.2298 0.0312,-0.34375 0.48526,-6.6593 0.73199,-13.76314 0.6875,-20.78125 -1.3e-4,-0.021 1.4e-4,-0.0415 0,-0.0625 -0.10301,-15.67082 -1.57845,-30.73168 -4.625,-38.5 -0.0812,-0.20813 -0.16653,-0.39613 -0.25,-0.59375 -0.065,-0.15323 -0.12113,-0.32202 -0.1875,-0.46875 -0.15204,-0.33747 -0.3095,-0.63524 -0.46875,-0.9375 -0.643,-1.22032 -1.33125,-2.13169 -2.09375,-2.71875 -0.18857,-0.14698 -0.36649,-0.27046 -0.5625,-0.375 -0.39202,-0.20908 -0.79669,-0.3443 -1.21875,-0.375 L 591.25,407.25 c 0.003,0.009 -0.003,0.0224 0,0.0312 L 589,407.25 z m -444.6875,2.40625 c -8.85552,-0.17364 -7.8125,12.875 -7.8125,12.875 l 63.375,0 0,-12.875 -55.5625,0 z M 26.34375,415.3125 c -0.09263,0.14879 -3.373708,5.47795 -4.25,6.84375 -0.390363,0.60844 -1.575985,2.78463 -2.8125,5.09375 l 0.375,-4.84375 c 0.01195,3.7e-4 0.01929,-3.7e-4 0.03125,0 l 0,-0.0312 6.65625,-7.0625 z m 34.25,0.21875 c -1.369288,0.0302 -2.221525,0.0954 -2.375,0.1875 -1.227799,0.73668 -0.25,6.15625 -0.25,6.15625 l 51.5625,1.46875 0,-2.21875 c 0,-2.21006 -1.46413,-4.65625 -2.9375,-4.65625 -1.28919,0 -36.414981,-1.14901 -46,-0.9375 z m 304.59375,66.5 12.75,0 c 0.66633,0.96805 1.49358,2.2102 2.3125,3.6875 l -15.0625,0 0,-3.6875 z m 73.59375,0 3.71875,0 0,3.6875 -5.40625,0 1.6875,-3.6875 z m -276.9375,2.6875 -12.28125,0.25 c -0.49112,6.13902 0,14.25 0,14.25 0,0 1.95491,1.23686 6.375,-1.21875 4.42009,-2.4556 5.90625,-13.28125 5.90625,-13.28125 z"
       id="path20443"
       inkscape:connector-curvature="0" />
  </g>
</svg>
