<?xml version="1.0" encoding="UTF-8" standalone="no"?>
<!-- Created with Inkscape (http://www.inkscape.org/) -->

<svg
   xmlns:dc="http://purl.org/dc/elements/1.1/"
   xmlns:cc="http://creativecommons.org/ns#"
   xmlns:rdf="http://www.w3.org/1999/02/22-rdf-syntax-ns#"
   xmlns:svg="http://www.w3.org/2000/svg"
   xmlns="http://www.w3.org/2000/svg"
   xmlns:xlink="http://www.w3.org/1999/xlink"
   xmlns:sodipodi="http://sodipodi.sourceforge.net/DTD/sodipodi-0.dtd"
   xmlns:inkscape="http://www.inkscape.org/namespaces/inkscape"
   width="734.24158"
   height="631.42352"
   id="svg16928"
   version="1.1"
   inkscape:version="0.48.5 r10040"
   sodipodi:docname="shotgun.svg">
  <defs
     id="defs16930">
    <linearGradient
       inkscape:collect="always"
       xlink:href="#linearGradient4765"
       id="linearGradient12337"
       gradientUnits="userSpaceOnUse"
       gradientTransform="translate(4.9229915e-6,60.231659)"
       x1="773.99524"
       y1="941.34991"
       x2="618.37714"
       y2="944.6261" />
    <linearGradient
       inkscape:collect="always"
       id="linearGradient4765">
      <stop
         style="stop-color:#e3d92c;stop-opacity:1;"
         offset="0"
         id="stop4767" />
      <stop
         style="stop-color:#ffcc00;stop-opacity:1"
         offset="1"
         id="stop4769" />
    </linearGradient>
  </defs>
  <sodipodi:namedview
     id="base"
     pagecolor="#ffffff"
     bordercolor="#666666"
     borderopacity="1.0"
     inkscape:pageopacity="0.0"
     inkscape:pageshadow="2"
     inkscape:zoom="0.49497475"
     inkscape:cx="644.46575"
     inkscape:cy="184.27689"
     inkscape:document-units="px"
     inkscape:current-layer="layer1"
     showgrid="false"
     inkscape:window-width="1920"
     inkscape:window-height="1018"
     inkscape:window-x="-8"
     inkscape:window-y="-8"
     inkscape:window-maximized="1"
     showguides="true"
     inkscape:guide-bbox="true"
     fit-margin-top="0"
     fit-margin-left="0"
     fit-margin-right="0"
     fit-margin-bottom="0" />
  <metadata
     id="metadata16933">
    <rdf:RDF>
      <cc:Work
         rdf:about="">
        <dc:format>image/svg+xml</dc:format>
        <dc:type
           rdf:resource="http://purl.org/dc/dcmitype/StillImage" />
        <dc:title></dc:title>
      </cc:Work>
    </rdf:RDF>
  </metadata>
  <g
     inkscape:label="Layer 1"
     inkscape:groupmode="layer"
     id="layer1"
     transform="translate(-6.3320656,-24.016972)">
    <g
       inkscape:export-ydpi="83.927536"
       inkscape:export-xdpi="83.927536"
       inkscape:export-filename="C:\Users\Robert\Desktop\weapons-pack\pngs\pump-action-shotgun.png"
       transform="matrix(1.0804734,0,0,1.0804734,-355.75972,311.21)"
       id="g10459">
      <path
         style="fill:#000000;fill-opacity:1;stroke:none"
         d="m 615.44643,-218.70925 c 3.39286,9.28572 -0.53571,12.58929 -0.17857,13.83929 0.35714,1.25 2.85714,0.625 5.08928,-2.05357 2.23215,-2.67858 3.75,-7.05358 4.01786,-10.53572 0.26786,-3.48214 -8.92857,-1.25 -8.92857,-1.25 z"
         id="path10461"
         inkscape:connector-curvature="0"
         transform="translate(-4.9229925e-6,0)" />
      <path
         sodipodi:nodetypes="ccccc"
         transform="translate(-4.9229925e-6,0)"
         inkscape:connector-curvature="0"
         id="path10463"
         d="m 739.82143,-220.49496 168.21429,-2.67857 c 9.47944,0 9.46429,-17.85715 0.17857,-17.67858 l -174.82143,-0.71428 z"
         style="fill:#1a1a1a;fill-opacity:1;stroke:#000000;stroke-width:8;stroke-linejoin:round;stroke-miterlimit:4;stroke-dasharray:none" />
      <g
         id="g10465">
        <path
           style="fill:#333333;fill-opacity:1;stroke:#000000;stroke-width:8;stroke-miterlimit:4;stroke-dasharray:none"
           d="m 740.94689,-259.96122 266.01741,0.89286 c 4.4736,0.23767 5.4094,14.88971 0,14.55554 l -269.98207,4.07388 1.76777,-18.27031 z"
           id="path10467"
           inkscape:connector-curvature="0"
           transform="translate(-4.9229925e-6,0)"
           sodipodi:nodetypes="cccccc" />
        <path
           sodipodi:nodetypes="cccccc"
           transform="translate(-4.9229925e-6,0)"
           inkscape:connector-curvature="0"
           id="path10469"
           d="m 740.94689,-259.96122 266.01741,0.89286 c 4.4736,0.23767 5.4094,14.88971 0,14.55554 l -269.98207,4.07388 1.76777,-18.27031 z"
           style="fill:#4d4d4d;fill-opacity:1;stroke:none" />
        <path
           inkscape:connector-curvature="0"
           id="path10471"
           transform="translate(-4.9229925e-6,0)"
           d="m 1001.4688,-253.5 c -5.75898,0.13393 -12.88844,1.04911 -20.0313,2.65625 -13.75407,3.09465 -179.38658,4.52927 -243.78125,3.28125 l -0.6875,7.125 270.00005,-4.0625 c 3.0045,0.18561 4.0231,-4.25812 3.5937,-8.28125 -2.1942,-0.56847 -5.3445,-0.80594 -9.0937,-0.71875 z"
           style="opacity:0.40707966;fill:#000000;fill-opacity:1;stroke:none" />
        <rect
           ry="5"
           rx="2.8710005"
           transform="translate(-4.9229925e-6,0)"
           y="-257.99496"
           x="748.92859"
           height="5"
           width="130"
           id="rect10473"
           style="opacity:0.19711537;fill:#ffffff;fill-opacity:1;stroke:none" />
      </g>
      <path
         style="fill:#1a1a1a;fill-opacity:1;stroke:none"
         d="m 739.82143,-220.49496 168.21429,-2.67857 c 9.47944,0 9.46429,-15.83685 0.17857,-15.65828 l -174.82143,1.05349 z"
         id="path10475"
         inkscape:connector-curvature="0"
         transform="translate(-4.9229925e-6,0)"
         sodipodi:nodetypes="ccccc" />
      <path
         sodipodi:nodetypes="cccsscc"
         transform="translate(-4.9229925e-6,0)"
         inkscape:connector-curvature="0"
         id="path10477"
         d="m 798.03571,-239.89797 c 0.89286,5.89285 -0.0893,18.42086 -0.0893,18.42086 l -5.17858,0 c -1.60714,2.5 -2.32142,7.14286 4.19644,6.69643 22.51799,-1.54234 82.81093,-0.59806 86.13578,-1.24999 9.10714,-1.78572 8.92857,-24.28573 2.32143,-24.28573 z"
         style="fill:#d45500;fill-opacity:1;stroke:#000000;stroke-width:7;stroke-linejoin:round;stroke-miterlimit:4;stroke-dasharray:none" />
      <path
         inkscape:connector-curvature="0"
         style="opacity:0.28336289;fill:#000000;fill-opacity:1;stroke:none"
         d="m 738.9375,-232.625 c 0,0 -0.7155,1.44496 -1.78125,3.4375 l 2.65625,8.6875 168.21875,-2.6875 c 4.26767,0 6.59192,-3.59899 7.03125,-7.5625 -12.10424,0.40205 -66.24329,1.91402 -176.125,-1.875 z"
         transform="translate(-4.9229925e-6,0)"
         id="path10479" />
      <path
         style="fill:#a05a2c;fill-opacity:1;stroke:none"
         d="m 798.03571,-239.89797 c 0.89286,5.89285 -0.0893,18.42086 -0.0893,18.42086 l -5.17858,0 c -1.60714,2.5 -2.32142,7.14286 4.19644,6.69643 22.51799,-1.54234 82.81093,-0.59806 86.13578,-1.24999 9.10714,-1.78572 8.92857,-24.28573 2.32143,-24.28573 z"
         id="path10481"
         inkscape:connector-curvature="0"
         transform="translate(-4.9229925e-6,0)"
         sodipodi:nodetypes="cccsscc" />
      <g
         id="g10483">
        <path
           transform="translate(-4.9229925e-6,0)"
           id="path10485"
           d="m 638.90625,-225.21875 c -0.63689,0.0271 -1.27128,0.10069 -1.875,0.1875 -9.65958,1.38896 -30.23747,3.20479 -34.59375,4.59375 -4.35629,1.38896 -8.15625,2.78125 -8.15625,2.78125 4.86136,2.27285 5.62246,3.97399 5.875,6.5625 0.25254,2.58852 0.23985,4.8566 1.25,6.6875 1.01016,1.83091 6.05423,6.75178 10.125,8.35898 5.36862,2.11961 11.77947,2.81244 17.28252,1.07138 6.81661,-2.15664 11.09399,-9.02404 16.74873,-13.39911 5.08517,-3.9344 14.05632,-11.55378 15.44528,-11.55378 1.38896,0 -4.15499,5.17291 -1.94528,2.64753 2.0716,-2.36754 -10.60284,-8.34442 -20.15625,-7.9375 z m -15.25,6.15625 c 7.08538,-0.026 14.56694,0.50088 14.125,10.59375 -0.21736,4.96397 -9.56814,8.875 -17.34375,8.875 -7.77562,0 -14.84375,-3.59378 -14.84375,-8.5625 0,-4.96872 7.31813,-10.875 15.09375,-10.875 0.97195,0 1.95655,-0.0275 2.96875,-0.0312 z"
           style="fill:#333333;fill-opacity:1;stroke:#000000;stroke-width:5;stroke-linejoin:round;stroke-miterlimit:4;stroke-dasharray:none"
           inkscape:connector-curvature="0"
           sodipodi:nodetypes="ssscssaaassscsssssc" />
        <path
           transform="translate(-4.9229925e-6,0)"
           id="path10487"
           d="m 638.90625,-225.21875 c -0.63689,0.0271 -1.27128,0.10069 -1.875,0.1875 -9.65958,1.38896 -30.23747,3.20479 -34.59375,4.59375 -4.35629,1.38896 -8.15625,2.78125 -8.15625,2.78125 4.86136,2.27285 5.62246,3.97399 5.875,6.5625 0.25254,2.58852 0.23985,4.8566 1.25,6.6875 1.01016,1.83091 6.05423,6.75178 10.125,8.35898 5.36862,2.11961 11.77947,2.81244 17.28252,1.07138 6.81661,-2.15664 11.09399,-9.02404 16.74873,-13.39911 5.08517,-3.9344 14.05632,-11.55378 15.44528,-11.55378 1.38896,0 -4.15499,5.17291 -1.94528,2.64753 2.0716,-2.36754 -10.60284,-8.34442 -20.15625,-7.9375 z m -15.25,6.15625 c 7.08538,-0.026 14.56694,0.50088 14.125,10.59375 -0.21736,4.96397 -9.56814,8.875 -17.34375,8.875 -7.77562,0 -14.84375,-3.59378 -14.84375,-8.5625 0,-4.96872 7.31813,-10.875 15.09375,-10.875 0.97195,0 1.95655,-0.0275 2.96875,-0.0312 z"
           style="fill:#333333;fill-opacity:1;stroke:none"
           inkscape:connector-curvature="0"
           sodipodi:nodetypes="ssscssaaassscsssssc" />
        <path
           sodipodi:nodetypes="ssscssaaassscsssssc"
           inkscape:connector-curvature="0"
           style="fill:#333333;fill-opacity:1;stroke:none"
           d="m 638.90625,-225.21875 c -0.63689,0.0271 -1.27128,0.10069 -1.875,0.1875 -9.65958,1.38896 -30.23747,3.20479 -34.59375,4.59375 -4.35629,1.38896 -8.15625,2.78125 -8.15625,2.78125 4.86136,2.27285 5.62246,3.97399 5.875,6.5625 0.25254,2.58852 0.23985,4.8566 1.25,6.6875 1.01016,1.83091 6.05423,6.75178 10.125,8.35898 5.36862,2.11961 11.77947,2.81244 17.28252,1.07138 6.81661,-2.15664 11.09399,-9.02404 16.74873,-13.39911 5.08517,-3.9344 14.05632,-11.55378 15.44528,-11.55378 1.38896,0 -4.15499,5.17291 -1.94528,2.64753 2.0716,-2.36754 -10.60284,-8.34442 -20.15625,-7.9375 z m -15.25,6.15625 c 7.08538,-0.026 14.56694,0.50088 14.125,10.59375 -0.21736,4.96397 -9.56814,8.875 -17.34375,8.875 -7.77562,0 -14.84375,-3.59378 -14.84375,-8.5625 0,-4.96872 7.31813,-10.875 15.09375,-10.875 0.97195,0 1.95655,-0.0275 2.96875,-0.0312 z"
           id="path10489"
           transform="translate(-4.9229925e-6,0)" />
      </g>
      <path
         sodipodi:nodetypes="cssscscsccssc"
         transform="translate(-4.9229925e-6,0)"
         inkscape:connector-curvature="0"
         id="path10491"
         d="m 342.18918,-205.78281 c 1.98776,-3.32989 175.51202,-24.24574 181.57492,-25.75889 6.06152,-1.5128 5.55583,6.06091 15.65736,4.04061 10.10152,-2.02031 51.0127,-24.24366 52.52793,-23.73859 1.51523,0.50508 9.35923,33.39368 9.35923,33.39368 0,0 -24.00644,-0.0586 -34.61304,8.02258 -10.6066,8.08122 -22.22336,37.88072 -22.22336,37.88072 0,0 -10.6066,2.0203 -15.15229,0 -4.54568,-2.02031 -14.64721,-8.5863 -14.64721,-8.5863 l -1.01015,-3.53553 c 0,0 -135.36044,62.12438 -138.89598,62.62945 -3.53553,0.50508 -16.16244,1.51523 -18.68782,2.02031 -2.52538,0.50508 -25.00127,-65.65992 -13.88959,-86.36804 z"
         style="fill:#a05a2c;fill-opacity:1;stroke:#000000;stroke-width:8;stroke-linejoin:round;stroke-miterlimit:4;stroke-dasharray:none" />
      <path
         style="fill:#a05a2c;fill-opacity:1;stroke:none"
         d="m 342.18918,-205.78281 c 1.98776,-3.32989 175.51202,-24.24574 181.57492,-25.75889 6.06152,-1.5128 5.55583,6.06091 15.65736,4.04061 10.10152,-2.02031 50.93086,-24.67487 52.44609,-24.1698 1.51523,0.50508 9.04692,33.89252 9.04692,33.89252 0,0 -23.61229,-0.12627 -34.21889,7.95495 -10.6066,8.08122 -22.22336,37.88072 -22.22336,37.88072 0,0 -10.6066,2.0203 -15.15229,0 -4.54568,-2.02031 -11.17981,-4.11343 -14.64721,-8.5863 -0.75094,-0.96869 -1.01015,-3.53553 -1.01015,-3.53553 0,0 -135.36044,62.12438 -138.89598,62.62945 -3.53553,0.50508 -16.16244,1.51523 -18.68782,2.02031 -2.52538,0.50508 -25.00127,-65.65992 -13.88959,-86.36804 z"
         id="path10493"
         inkscape:connector-curvature="0"
         transform="translate(-4.9229925e-6,0)"
         sodipodi:nodetypes="cssscscsacssc" />
      <path
         transform="translate(-4.9229925e-6,0)"
         sodipodi:nodetypes="cscsccc"
         inkscape:connector-curvature="0"
         id="path10495"
         d="m 591.86755,-251.67089 c 0,0 16.24428,-7.65001 29.37627,-8.15509 13.13198,-0.50507 120.61388,-1.97698 120.61388,-1.97698 0,0 1.1095,40.11024 0.0993,40.86786 -1.01016,0.75761 -1.01016,4.29315 -3.283,5.05076 -43.7991,-3.58283 -111.42568,-1.86466 -137.75953,-1.89403 z"
         style="fill:#4d4d4d;fill-opacity:1;stroke:#000000;stroke-width:8;stroke-linejoin:round;stroke-miterlimit:4;stroke-dasharray:none" />
      <path
         style="fill:#4d4d4d;fill-opacity:1;stroke:none"
         d="m 591.86755,-251.67089 c 0,0 16.24428,-7.65001 29.37627,-8.15509 13.13198,-0.50507 120.61388,-1.97698 120.61388,-1.97698 0,0 0.41805,39.64602 0.0993,40.86786 -0.37881,1.45209 -1.01016,4.29315 -3.283,5.05076 -43.7991,-3.58283 -111.42568,-1.86466 -137.75953,-1.89403 z"
         id="path10497"
         inkscape:connector-curvature="0"
         sodipodi:nodetypes="cscsccc"
         transform="translate(-4.9229925e-6,0)" />
      <rect
         rx="8.049572"
         ry="7.6392784"
         y="-254.64894"
         x="676.80219"
         height="15.278557"
         width="52.022854"
         id="rect10499"
         style="fill:#333333;fill-opacity:1;stroke:#000000;stroke-width:4;stroke-miterlimit:4;stroke-dasharray:none" />
      <rect
         style="fill:#808080;fill-opacity:1;stroke:none"
         id="rect10501"
         width="52.022854"
         height="15.278557"
         x="676.80219"
         y="-254.64894"
         ry="7.6392784"
         rx="8.049572" />
      <path
         inkscape:connector-curvature="0"
         id="path10503"
         transform="translate(-4.9229925e-6,0)"
         d="m 357.3125,-208.96875 c -8.98953,1.45515 -14.7782,2.60653 -15.125,3.1875 -11.11168,20.70812 11.38087,86.88008 13.90625,86.375 2.19505,-0.43901 11.70759,-1.24241 16.5625,-1.78125 -7.60285,-5.5358 -20.43048,-54.20527 -15.34375,-87.78125 z"
         style="fill:#333333;fill-opacity:1;stroke:#000000;stroke-width:8;stroke-linejoin:round;stroke-miterlimit:4;stroke-dasharray:none" />
      <path
         inkscape:connector-curvature="0"
         style="fill:#333333;fill-opacity:1;stroke:none"
         d="m 357.3125,-208.96875 c -8.98953,1.45515 -14.7782,2.60653 -15.125,3.1875 -11.11168,20.70812 11.38087,86.88008 13.90625,86.375 2.19505,-0.43901 11.70759,-1.24241 16.5625,-1.78125 -7.60285,-5.5358 -20.43048,-54.20527 -15.34375,-87.78125 z"
         transform="translate(-4.9229925e-6,0)"
         id="path10505" />
      <path
         style="opacity:0.35840705;fill:#000000;fill-opacity:1;stroke:none"
         d="m 597.5,-232.28125 c -5.62109,1.62187 -28.4035,10.31135 -42.9375,16.40625 -15.65737,6.56599 -24.21875,26.25 -24.21875,26.25 0,0 -10.11723,-5.03792 -20.21875,-10.59375 -10.10153,-5.55584 -36.88404,9.6012 -51.53125,18.1875 -13.07058,7.66206 -59.10781,28.96602 -112.65625,34.90625 4.22429,15.64987 9.06415,27.93717 10.15625,27.71875 2.52538,-0.50508 15.15197,-1.52617 18.6875,-2.03125 3.53554,-0.50507 138.875,-62.625 138.875,-62.625 0,0 0.27764,2.5639 1.03125,3.53125 3.47496,4.4605 10.07932,6.57344 14.625,8.59375 4.54569,2.0203 15.15625,0 15.15625,0 0,0 11.61215,-29.79378 22.21875,-37.875 10.6066,-8.08122 34.34375,-7.59375 34.34375,-7.59375 0,0 -1.65261,-7.20862 -3.53125,-14.875 z"
         transform="translate(-4.9229925e-6,0)"
         id="path10507"
         inkscape:connector-curvature="0"
         sodipodi:nodetypes="cscsscsscascscc" />
      <path
         inkscape:connector-curvature="0"
         style="opacity:0.19026549;fill:#ffffff;fill-opacity:1;stroke:none"
         d="m 522.03125,-231.25 c -16.98501,2.75244 -177.92713,22.25804 -179.84375,25.46875 -2.11349,3.93877 -3.01085,9.5125 -3.0625,15.96875 25.56139,-0.46567 86.41608,-6.08661 136.59375,-22.8125 24.34497,-8.11499 37.78386,-14.0027 46.3125,-18.625 z"
         transform="translate(-4.9229925e-6,0)"
         id="path10509" />
      <path
         inkscape:connector-curvature="0"
         style="opacity:0.73893804;fill:#000000;fill-opacity:1;stroke:none"
         d="m 702.90625,-254.65625 c 5.54293,6.87905 2.05657,12.1687 -2.0625,15.28125 l 19.9375,0 c 4.45946,0 8.03125,-3.39284 8.03125,-7.625 0,-4.23216 -3.57179,-7.65625 -8.03125,-7.65625 l -17.875,0 z"
         transform="translate(-4.9229925e-6,0)"
         id="path10511" />
      <path
         style="opacity:0.58849553;fill:#000000;fill-opacity:1;stroke:none"
         d="m 732.78125,-259.46875 c 0.91765,1.43882 1.83515,2.85723 2.625,4.1875 4.79823,8.08122 4.26872,15.14261 -3.8125,22.71875 -8.08122,7.57615 -22.45923,5.06679 -35.84375,1.53125 -13.38452,-3.53553 -27.79774,5.28886 -51.03125,4.53125 -21.98515,-0.71691 -26.18767,-5.47902 -46.46875,-5.5625 1.33957,5.77225 2.72812,10.93494 3.8125,11.625 1.38896,0.88389 25.38087,1.03252 27.90625,0.90625 2.52538,-0.12627 18.04045,0.24747 23.34375,0.5 3.72888,0.17757 8.89355,-0.14726 9.65625,0.875 11.93591,0.0101 24.33457,0.11813 36.40625,0.40625 0.0562,-0.0243 0.16406,-0.0513 0.28125,-0.0625 3.75,-0.35714 35.05427,0.71875 36.31696,0.71875 3.48215,0 3.9375,-3.59375 3.9375,-4.84375 0,-1.25 -0.35268,-31.0625 -0.53125,-32.3125 -0.17857,-1.25 -0.54465,-5 -3.9375,-5 -0.52314,0 -0.73125,-0.0829 -2.66071,-0.21875 z"
         transform="translate(-4.9229925e-6,0)"
         id="path10513"
         inkscape:connector-curvature="0"
         sodipodi:nodetypes="csssscsssccsssssc" />
      <path
         style="opacity:0.58849553;fill:#ffffff;fill-opacity:1;stroke:none"
         d="m 595.99001,-248.46176 c 1.51523,8.5863 2.27284,12.12183 4.0406,11.86929 1.76777,-0.25253 -1.76776,-8.83883 0.50508,-11.36421 2.27284,-2.52538 18.43528,-6.56599 26.01143,-7.07107 7.57614,-0.50508 36.11295,0.25254 40.91118,0 4.79822,-0.25254 5.05076,-1.76777 3.78807,-2.52538 -1.26269,-0.75762 -40.65864,-0.50508 -46.46702,-0.25254 -6.92792,0.30121 -24.74874,4.29315 -26.26397,5.80838 -1.51523,1.51523 -2.52537,3.53553 -2.52537,3.53553 z"
         id="path10515"
         inkscape:connector-curvature="0"
         transform="translate(-4.9229925e-6,0)"
         sodipodi:nodetypes="csssssssc" />
      <g
         transform="matrix(1.0027479,0,0,1.0027479,105.63126,73.564932)"
         id="g10517">
        <path
           transform="matrix(1.1836735,0,0,1.1836735,-113.82927,55.583807)"
           d="m 626.78571,-298.97711 c 0,2.41624 -1.95876,4.375 -4.375,4.375 -2.41625,0 -4.375,-1.95876 -4.375,-4.375 0,-2.41625 1.95875,-4.375 4.375,-4.375 2.41624,0 4.375,1.95875 4.375,4.375 z"
           sodipodi:ry="4.375"
           sodipodi:rx="4.375"
           sodipodi:cy="-298.97711"
           sodipodi:cx="622.41071"
           id="path10519"
           style="opacity:0.55769228;fill:#808080;fill-opacity:1;stroke:none"
           sodipodi:type="arc" />
        <path
           sodipodi:type="arc"
           style="fill:#000000;fill-opacity:1;stroke:none"
           id="path10521"
           sodipodi:cx="622.41071"
           sodipodi:cy="-298.97711"
           sodipodi:rx="4.375"
           sodipodi:ry="4.375"
           d="m 626.78571,-298.97711 c 0,2.41624 -1.95876,4.375 -4.375,4.375 -2.41625,0 -4.375,-1.95876 -4.375,-4.375 0,-2.41625 1.95875,-4.375 4.375,-4.375 2.41624,0 4.375,1.95875 4.375,4.375 z"
           transform="translate(-4.9229925e-6,0)" />
        <path
           sodipodi:type="arc"
           style="fill:#999999;fill-opacity:1;stroke:none"
           id="path10523"
           sodipodi:cx="622.41071"
           sodipodi:cy="-298.88782"
           sodipodi:rx="2.0089285"
           sodipodi:ry="2.0089285"
           d="m 624.41963,-298.88782 c 0,1.1095 -0.89942,2.00893 -2.00892,2.00893 -1.10951,0 -2.00893,-0.89943 -2.00893,-2.00893 0,-1.1095 0.89942,-2.00893 2.00893,-2.00893 1.1095,0 2.00892,0.89943 2.00892,2.00893 z"
           transform="matrix(1.5888889,0,0,1.5888889,-366.50845,175.63225)" />
        <rect
           style="fill:#000000;fill-opacity:1;stroke:none"
           id="rect10525"
           width="1.0869662"
           height="5.5558391"
           x="621.9472"
           y="-302.0314"
           rx="0.4347865"
           ry="1.1111678" />
        <rect
           ry="0.29041883"
           rx="0.4347865"
           y="-625.17395"
           x="-299.70227"
           height="5.5558391"
           width="1.0869662"
           id="rect10527"
           style="fill:#000000;fill-opacity:1;stroke:none"
           transform="matrix(0,1,-1,0,0,0)" />
      </g>
      <g
         id="g10529"
         transform="matrix(1.0027479,0,0,1.0027479,-18.11243,72.302241)">
        <path
           sodipodi:type="arc"
           style="opacity:0.55769228;fill:#808080;fill-opacity:1;stroke:none"
           id="path10531"
           sodipodi:cx="622.41071"
           sodipodi:cy="-298.97711"
           sodipodi:rx="4.375"
           sodipodi:ry="4.375"
           d="m 626.78571,-298.97711 c 0,2.41624 -1.95876,4.375 -4.375,4.375 -2.41625,0 -4.375,-1.95876 -4.375,-4.375 0,-2.41625 1.95875,-4.375 4.375,-4.375 2.41624,0 4.375,1.95875 4.375,4.375 z"
           transform="matrix(1.1836735,0,0,1.1836735,-113.82927,55.583807)" />
        <path
           transform="translate(-4.9229925e-6,0)"
           d="m 626.78571,-298.97711 c 0,2.41624 -1.95876,4.375 -4.375,4.375 -2.41625,0 -4.375,-1.95876 -4.375,-4.375 0,-2.41625 1.95875,-4.375 4.375,-4.375 2.41624,0 4.375,1.95875 4.375,4.375 z"
           sodipodi:ry="4.375"
           sodipodi:rx="4.375"
           sodipodi:cy="-298.97711"
           sodipodi:cx="622.41071"
           id="path10533"
           style="fill:#000000;fill-opacity:1;stroke:none"
           sodipodi:type="arc" />
        <path
           transform="matrix(1.5888889,0,0,1.5888889,-366.50845,175.63225)"
           d="m 624.41963,-298.88782 c 0,1.1095 -0.89942,2.00893 -2.00892,2.00893 -1.10951,0 -2.00893,-0.89943 -2.00893,-2.00893 0,-1.1095 0.89942,-2.00893 2.00893,-2.00893 1.1095,0 2.00892,0.89943 2.00892,2.00893 z"
           sodipodi:ry="2.0089285"
           sodipodi:rx="2.0089285"
           sodipodi:cy="-298.88782"
           sodipodi:cx="622.41071"
           id="path10535"
           style="fill:#b3b3b3;fill-opacity:1;stroke:none"
           sodipodi:type="arc" />
        <rect
           ry="1.1111678"
           rx="0.4347865"
           y="-302.0314"
           x="621.9472"
           height="5.5558391"
           width="1.0869662"
           id="rect10537"
           style="fill:#000000;fill-opacity:1;stroke:none" />
        <rect
           transform="matrix(0,1,-1,0,0,0)"
           style="fill:#000000;fill-opacity:1;stroke:none"
           id="rect10539"
           width="1.0869662"
           height="5.5558391"
           x="-299.70227"
           y="-625.17395"
           rx="0.4347865"
           ry="0.29041883" />
      </g>
      <g
         transform="matrix(0.78330097,0,0,0.78330097,112.89934,-15.004969)"
         id="g10541">
        <path
           transform="matrix(1.1836735,0,0,1.1836735,-113.82927,55.583807)"
           d="m 626.78571,-298.97711 c 0,2.41624 -1.95876,4.375 -4.375,4.375 -2.41625,0 -4.375,-1.95876 -4.375,-4.375 0,-2.41625 1.95875,-4.375 4.375,-4.375 2.41624,0 4.375,1.95875 4.375,4.375 z"
           sodipodi:ry="4.375"
           sodipodi:rx="4.375"
           sodipodi:cy="-298.97711"
           sodipodi:cx="622.41071"
           id="path10543"
           style="opacity:0.55769228;fill:#808080;fill-opacity:1;stroke:none"
           sodipodi:type="arc" />
        <path
           sodipodi:type="arc"
           style="fill:#000000;fill-opacity:1;stroke:none"
           id="path10545"
           sodipodi:cx="622.41071"
           sodipodi:cy="-298.97711"
           sodipodi:rx="4.375"
           sodipodi:ry="4.375"
           d="m 626.78571,-298.97711 c 0,2.41624 -1.95876,4.375 -4.375,4.375 -2.41625,0 -4.375,-1.95876 -4.375,-4.375 0,-2.41625 1.95875,-4.375 4.375,-4.375 2.41624,0 4.375,1.95875 4.375,4.375 z"
           transform="translate(-4.9229925e-6,0)" />
        <path
           sodipodi:type="arc"
           style="fill:#cccccc;fill-opacity:1;stroke:none"
           id="path10547"
           sodipodi:cx="622.41071"
           sodipodi:cy="-298.88782"
           sodipodi:rx="2.0089285"
           sodipodi:ry="2.0089285"
           d="m 624.41963,-298.88782 c 0,1.1095 -0.89942,2.00893 -2.00892,2.00893 -1.10951,0 -2.00893,-0.89943 -2.00893,-2.00893 0,-1.1095 0.89942,-2.00893 2.00893,-2.00893 1.1095,0 2.00892,0.89943 2.00892,2.00893 z"
           transform="matrix(1.5888889,0,0,1.5888889,-366.50845,175.63225)" />
        <rect
           style="fill:#000000;fill-opacity:1;stroke:none"
           id="rect10549"
           width="1.0869662"
           height="5.5558391"
           x="621.9472"
           y="-302.0314"
           rx="0.4347865"
           ry="1.1111678" />
        <rect
           ry="0.29041883"
           rx="0.4347865"
           y="-625.17395"
           x="-299.70227"
           height="5.5558391"
           width="1.0869662"
           id="rect10551"
           style="fill:#000000;fill-opacity:1;stroke:none"
           transform="matrix(0,1,-1,0,0,0)" />
      </g>
      <g
         id="g10553"
         transform="matrix(0.90521593,0,0,0.90521593,168.15186,13.9133)">
        <path
           sodipodi:type="arc"
           style="opacity:0.55769228;fill:#808080;fill-opacity:1;stroke:none"
           id="path10555"
           sodipodi:cx="622.41071"
           sodipodi:cy="-298.97711"
           sodipodi:rx="4.375"
           sodipodi:ry="4.375"
           d="m 626.78571,-298.97711 c 0,2.41624 -1.95876,4.375 -4.375,4.375 -2.41625,0 -4.375,-1.95876 -4.375,-4.375 0,-2.41625 1.95875,-4.375 4.375,-4.375 2.41624,0 4.375,1.95875 4.375,4.375 z"
           transform="matrix(1.1836735,0,0,1.1836735,-113.82927,55.583807)" />
        <path
           transform="translate(-4.9229925e-6,0)"
           d="m 626.78571,-298.97711 c 0,2.41624 -1.95876,4.375 -4.375,4.375 -2.41625,0 -4.375,-1.95876 -4.375,-4.375 0,-2.41625 1.95875,-4.375 4.375,-4.375 2.41624,0 4.375,1.95875 4.375,4.375 z"
           sodipodi:ry="4.375"
           sodipodi:rx="4.375"
           sodipodi:cy="-298.97711"
           sodipodi:cx="622.41071"
           id="path10557"
           style="fill:#000000;fill-opacity:1;stroke:none"
           sodipodi:type="arc" />
        <path
           transform="matrix(1.5888889,0,0,1.5888889,-366.50845,175.63225)"
           d="m 624.41963,-298.88782 c 0,1.1095 -0.89942,2.00893 -2.00892,2.00893 -1.10951,0 -2.00893,-0.89943 -2.00893,-2.00893 0,-1.1095 0.89942,-2.00893 2.00893,-2.00893 1.1095,0 2.00892,0.89943 2.00892,2.00893 z"
           sodipodi:ry="2.0089285"
           sodipodi:rx="2.0089285"
           sodipodi:cy="-298.88782"
           sodipodi:cx="622.41071"
           id="path10559"
           style="fill:#cccccc;fill-opacity:1;stroke:none"
           sodipodi:type="arc" />
        <rect
           ry="1.1111678"
           rx="0.4347865"
           y="-302.0314"
           x="621.9472"
           height="5.5558391"
           width="1.0869662"
           id="rect10561"
           style="fill:#000000;fill-opacity:1;stroke:none" />
        <rect
           transform="matrix(0,1,-1,0,0,0)"
           style="fill:#000000;fill-opacity:1;stroke:none"
           id="rect10563"
           width="1.0869662"
           height="5.5558391"
           x="-299.70227"
           y="-625.17395"
           rx="0.4347865"
           ry="0.29041883" />
      </g>
      <path
         style="fill:#000000;fill-opacity:1;stroke:none"
         d="m 804.83906,-214.11657 c 5.05076,-3.40927 2.77792,-7.57615 2.77792,-11.23795 0,-3.6618 1.38896,-8.20749 2.14658,-8.71257 0.75761,-0.50507 2.0203,3.91435 2.39911,6.69226 0.3788,2.77792 -0.75762,6.31346 -0.75762,7.44988 0,1.13642 0.88389,3.91434 1.51523,4.67196 0.63135,0.75761 -8.08122,1.13642 -8.08122,1.13642 z"
         id="path10565"
         inkscape:connector-curvature="0" />
      <path
         inkscape:connector-curvature="0"
         id="path10567"
         d="m 821.79069,-214.11657 c 5.05076,-3.40927 2.77792,-7.57615 2.77792,-11.23795 0,-3.6618 1.38896,-8.20749 2.14658,-8.71257 0.75761,-0.50507 2.0203,3.91435 2.39911,6.69226 0.3788,2.77792 -0.75762,6.31346 -0.75762,7.44988 0,1.13642 0.88389,3.91434 1.51523,4.67196 0.63135,0.75761 -8.08122,1.13642 -8.08122,1.13642 z"
         style="fill:#000000;fill-opacity:1;stroke:none" />
      <path
         style="fill:#000000;fill-opacity:1;stroke:none"
         d="m 838.74229,-214.11657 c 5.05076,-3.40927 2.77792,-7.57615 2.77792,-11.23795 0,-3.6618 1.38896,-8.20749 2.14658,-8.71257 0.75761,-0.50507 2.0203,3.91435 2.39911,6.69226 0.3788,2.77792 -0.75762,6.31346 -0.75762,7.44988 0,1.13642 0.88389,3.91434 1.51523,4.67196 0.63135,0.75761 -8.08122,1.13642 -8.08122,1.13642 z"
         id="path10569"
         inkscape:connector-curvature="0" />
      <path
         inkscape:connector-curvature="0"
         id="path10571"
         d="m 855.69389,-214.11657 c 5.05076,-3.40927 2.77792,-7.57615 2.77792,-11.23795 0,-3.6618 1.38896,-8.20749 2.14658,-8.71257 0.75761,-0.50507 2.0203,3.91435 2.39911,6.69226 0.3788,2.77792 -0.75762,6.31346 -0.75762,7.44988 0,1.13642 0.88389,3.91434 1.51523,4.67196 0.63135,0.75761 -8.08122,1.13642 -8.08122,1.13642 z"
         style="fill:#000000;fill-opacity:1;stroke:none" />
      <path
         style="fill:#000000;fill-opacity:1;stroke:none"
         d="m 872.64549,-214.11657 c 5.05076,-3.40927 2.77792,-7.57615 2.77792,-11.23795 0,-3.6618 1.38896,-8.20749 2.14658,-8.71257 0.75761,-0.50507 2.0203,3.91435 2.39911,6.69226 0.3788,2.77792 -0.75762,6.31346 -0.75762,7.44988 0,1.13642 0.88389,3.91434 1.51523,4.67196 0.63135,0.75761 -8.08122,1.13642 -8.08122,1.13642 z"
         id="path10573"
         inkscape:connector-curvature="0" />
      <path
         inkscape:connector-curvature="0"
         style="opacity:0.50442475;fill:#000000;fill-opacity:1;stroke:none"
         d="m 877.5625,-228 c 0,0 -3.00793,3.13976 -8.4375,4.78125 -5.42957,1.6415 -8.34375,-3.90625 -8.34375,-3.90625 0,0 -0.27141,3.296 -7.46875,4.9375 -7.19733,1.64149 -8.6875,-3.53125 -8.6875,-3.53125 0,0 -0.75413,1.63721 -6.5625,3.53125 -5.80838,1.89403 -11.625,-3.28125 -11.625,-3.28125 0,0 -2.15704,2.02237 -5.1875,2.90625 -3.03046,0.88388 -8.19464,-1.64229 -10.59375,-3.03125 -2.34741,-1.35903 -4.58079,6.69562 -12.71875,3.96875 -6.8e-4,0.009 0,0.15625 0,0.15625 l -5.15625,0 c -1.60714,2.5 -2.33036,7.13393 4.1875,6.6875 22.51799,-1.54234 82.80015,-0.59807 86.125,-1.25 3.49922,-0.68612 5.64293,-4.43026 6.5625,-8.78125 l -1.46875,0.59375 C 884.52569,-222.70352 877.5625,-228 877.5625,-228 z"
         transform="translate(-4.9229925e-6,0)"
         id="path10575" />
      <path
         inkscape:connector-curvature="0"
         style="opacity:0.50442475;fill:#000000;fill-opacity:1;stroke:none"
         d="m 885.40625,-240.3125 -87.375,0.40625 c 0.16015,1.05696 0.25651,2.3767 0.3125,3.75 18.71976,-0.38245 82.83557,0.65957 90.90625,-0.28125 -0.7965,-2.32423 -2.10708,-3.875 -3.84375,-3.875 z"
         transform="translate(-4.9229925e-6,0)"
         id="path10577" />
      <path
         sodipodi:type="arc"
         style="opacity:0.34513275;fill:#000000;fill-opacity:1;stroke:none"
         id="path10579"
         sodipodi:cx="379.31229"
         sodipodi:cy="-169.16478"
         sodipodi:rx="6.0609155"
         sodipodi:ry="6.0609155"
         d="m 385.3732,-169.16478 c 0,3.34735 -2.71356,6.06092 -6.06091,6.06092 -3.34735,0 -6.06092,-2.71357 -6.06092,-6.06092 0,-3.34735 2.71357,-6.06092 6.06092,-6.06092 3.34735,0 6.06091,2.71357 6.06091,6.06092 z"
         transform="translate(-4.9229925e-6,0)" />
      <path
         sodipodi:type="arc"
         style="opacity:0.34513275;fill:#000000;fill-opacity:1;stroke:none"
         id="path10581"
         sodipodi:cx="392.31799"
         sodipodi:cy="-162.21999"
         sodipodi:rx="3.1567266"
         sodipodi:ry="3.1567266"
         d="m 395.47472,-162.21999 c 0,1.74342 -1.41331,3.15673 -3.15673,3.15673 -1.74341,0 -3.15672,-1.41331 -3.15672,-3.15673 0,-1.74341 1.41331,-3.15672 3.15672,-3.15672 1.74342,0 3.15673,1.41331 3.15673,3.15672 z"
         transform="translate(-4.9229925e-6,0)" />
    </g>
    <g
       id="g18879"
       transform="matrix(-1.0804734,0,0,1.0804734,1102.6654,567.78875)"
       inkscape:export-filename="C:\Users\Robert\Desktop\weapons-pack\pngs\pump-action-shotgun.png"
       inkscape:export-xdpi="83.927536"
       inkscape:export-ydpi="83.927536">
      <path
         transform="translate(-4.9229925e-6,0)"
         inkscape:connector-curvature="0"
         id="path18881"
         d="m 615.44643,-218.70925 c 3.39286,9.28572 -0.53571,12.58929 -0.17857,13.83929 0.35714,1.25 2.85714,0.625 5.08928,-2.05357 2.23215,-2.67858 3.75,-7.05358 4.01786,-10.53572 0.26786,-3.48214 -8.92857,-1.25 -8.92857,-1.25 z"
         style="fill:#000000;fill-opacity:1;stroke:none" />
      <path
         style="fill:#1a1a1a;fill-opacity:1;stroke:#000000;stroke-width:8;stroke-linejoin:round;stroke-miterlimit:4;stroke-dasharray:none"
         d="m 739.82143,-220.49496 168.21429,-2.67857 c 9.47944,0 9.46429,-17.85715 0.17857,-17.67858 l -174.82143,-0.71428 z"
         id="path18883"
         inkscape:connector-curvature="0"
         transform="translate(-4.9229925e-6,0)"
         sodipodi:nodetypes="ccccc" />
      <g
         id="g18885">
        <path
           sodipodi:nodetypes="cccccc"
           transform="translate(-4.9229925e-6,0)"
           inkscape:connector-curvature="0"
           id="path18887"
           d="m 740.94689,-259.96122 266.01741,0.89286 c 4.4736,0.23767 5.4094,14.88971 0,14.55554 l -269.98207,4.07388 1.76777,-18.27031 z"
           style="fill:#333333;fill-opacity:1;stroke:#000000;stroke-width:8;stroke-miterlimit:4;stroke-dasharray:none" />
        <path
           style="fill:#4d4d4d;fill-opacity:1;stroke:none"
           d="m 740.94689,-259.96122 266.01741,0.89286 c 4.4736,0.23767 5.4094,14.88971 0,14.55554 l -269.98207,4.07388 1.76777,-18.27031 z"
           id="path18889"
           inkscape:connector-curvature="0"
           transform="translate(-4.9229925e-6,0)"
           sodipodi:nodetypes="cccccc" />
        <path
           style="opacity:0.40707966;fill:#000000;fill-opacity:1;stroke:none"
           d="m 1001.4688,-253.5 c -5.75898,0.13393 -12.88844,1.04911 -20.0313,2.65625 -13.75407,3.09465 -179.38658,4.52927 -243.78125,3.28125 l -0.6875,7.125 270.00005,-4.0625 c 3.0045,0.18561 4.0231,-4.25812 3.5937,-8.28125 -2.1942,-0.56847 -5.3445,-0.80594 -9.0937,-0.71875 z"
           transform="translate(-4.9229925e-6,0)"
           id="path18891"
           inkscape:connector-curvature="0" />
        <rect
           style="opacity:0.19711537;fill:#ffffff;fill-opacity:1;stroke:none"
           id="rect18893"
           width="130"
           height="5"
           x="748.92859"
           y="-257.99496"
           transform="translate(-4.9229925e-6,0)"
           rx="2.8710005"
           ry="5" />
      </g>
      <path
         sodipodi:nodetypes="ccccc"
         transform="translate(-4.9229925e-6,0)"
         inkscape:connector-curvature="0"
         id="path18895"
         d="m 739.82143,-220.49496 168.21429,-2.67857 c 9.47944,0 9.46429,-15.83685 0.17857,-15.65828 l -174.82143,1.05349 z"
         style="fill:#1a1a1a;fill-opacity:1;stroke:none" />
      <path
         style="fill:#d45500;fill-opacity:1;stroke:#000000;stroke-width:7;stroke-linejoin:round;stroke-miterlimit:4;stroke-dasharray:none"
         d="m 798.03571,-239.89797 c 0.89286,5.89285 -0.0893,18.42086 -0.0893,18.42086 l -5.17858,0 c -1.60714,2.5 -2.32142,7.14286 4.19644,6.69643 22.51799,-1.54234 82.81093,-0.59806 86.13578,-1.24999 9.10714,-1.78572 8.92857,-24.28573 2.32143,-24.28573 z"
         id="path18897"
         inkscape:connector-curvature="0"
         transform="translate(-4.9229925e-6,0)"
         sodipodi:nodetypes="cccsscc" />
      <path
         id="path18899"
         transform="translate(-4.9229925e-6,0)"
         d="m 738.9375,-232.625 c 0,0 -0.7155,1.44496 -1.78125,3.4375 l 2.65625,8.6875 168.21875,-2.6875 c 4.26767,0 6.59192,-3.59899 7.03125,-7.5625 -12.10424,0.40205 -66.24329,1.91402 -176.125,-1.875 z"
         style="opacity:0.28336289;fill:#000000;fill-opacity:1;stroke:none"
         inkscape:connector-curvature="0" />
      <path
         sodipodi:nodetypes="cccsscc"
         transform="translate(-4.9229925e-6,0)"
         inkscape:connector-curvature="0"
         id="path18901"
         d="m 798.03571,-239.89797 c 0.89286,5.89285 -0.0893,18.42086 -0.0893,18.42086 l -5.17858,0 c -1.60714,2.5 -2.32142,7.14286 4.19644,6.69643 22.51799,-1.54234 82.81093,-0.59806 86.13578,-1.24999 9.10714,-1.78572 8.92857,-24.28573 2.32143,-24.28573 z"
         style="fill:#a05a2c;fill-opacity:1;stroke:none" />
      <g
         id="g18903">
        <path
           sodipodi:nodetypes="ssscssaaassscsssssc"
           inkscape:connector-curvature="0"
           style="fill:#333333;fill-opacity:1;stroke:#000000;stroke-width:5;stroke-linejoin:round;stroke-miterlimit:4;stroke-dasharray:none"
           d="m 638.90625,-225.21875 c -0.63689,0.0271 -1.27128,0.10069 -1.875,0.1875 -9.65958,1.38896 -30.23747,3.20479 -34.59375,4.59375 -4.35629,1.38896 -8.15625,2.78125 -8.15625,2.78125 4.86136,2.27285 5.62246,3.97399 5.875,6.5625 0.25254,2.58852 0.23985,4.8566 1.25,6.6875 1.01016,1.83091 6.05423,6.75178 10.125,8.35898 5.36862,2.11961 11.77947,2.81244 17.28252,1.07138 6.81661,-2.15664 11.09399,-9.02404 16.74873,-13.39911 5.08517,-3.9344 14.05632,-11.55378 15.44528,-11.55378 1.38896,0 -4.15499,5.17291 -1.94528,2.64753 2.0716,-2.36754 -10.60284,-8.34442 -20.15625,-7.9375 z m -15.25,6.15625 c 7.08538,-0.026 14.56694,0.50088 14.125,10.59375 -0.21736,4.96397 -9.56814,8.875 -17.34375,8.875 -7.77562,0 -14.84375,-3.59378 -14.84375,-8.5625 0,-4.96872 7.31813,-10.875 15.09375,-10.875 0.97195,0 1.95655,-0.0275 2.96875,-0.0312 z"
           id="path18905"
           transform="translate(-4.9229925e-6,0)" />
        <path
           sodipodi:nodetypes="ssscssaaassscsssssc"
           inkscape:connector-curvature="0"
           style="fill:#333333;fill-opacity:1;stroke:none"
           d="m 638.90625,-225.21875 c -0.63689,0.0271 -1.27128,0.10069 -1.875,0.1875 -9.65958,1.38896 -30.23747,3.20479 -34.59375,4.59375 -4.35629,1.38896 -8.15625,2.78125 -8.15625,2.78125 4.86136,2.27285 5.62246,3.97399 5.875,6.5625 0.25254,2.58852 0.23985,4.8566 1.25,6.6875 1.01016,1.83091 6.05423,6.75178 10.125,8.35898 5.36862,2.11961 11.77947,2.81244 17.28252,1.07138 6.81661,-2.15664 11.09399,-9.02404 16.74873,-13.39911 5.08517,-3.9344 14.05632,-11.55378 15.44528,-11.55378 1.38896,0 -4.15499,5.17291 -1.94528,2.64753 2.0716,-2.36754 -10.60284,-8.34442 -20.15625,-7.9375 z m -15.25,6.15625 c 7.08538,-0.026 14.56694,0.50088 14.125,10.59375 -0.21736,4.96397 -9.56814,8.875 -17.34375,8.875 -7.77562,0 -14.84375,-3.59378 -14.84375,-8.5625 0,-4.96872 7.31813,-10.875 15.09375,-10.875 0.97195,0 1.95655,-0.0275 2.96875,-0.0312 z"
           id="path18907"
           transform="translate(-4.9229925e-6,0)" />
        <path
           transform="translate(-4.9229925e-6,0)"
           id="path18909"
           d="m 638.90625,-225.21875 c -0.63689,0.0271 -1.27128,0.10069 -1.875,0.1875 -9.65958,1.38896 -30.23747,3.20479 -34.59375,4.59375 -4.35629,1.38896 -8.15625,2.78125 -8.15625,2.78125 4.86136,2.27285 5.62246,3.97399 5.875,6.5625 0.25254,2.58852 0.23985,4.8566 1.25,6.6875 1.01016,1.83091 6.05423,6.75178 10.125,8.35898 5.36862,2.11961 11.77947,2.81244 17.28252,1.07138 6.81661,-2.15664 11.09399,-9.02404 16.74873,-13.39911 5.08517,-3.9344 14.05632,-11.55378 15.44528,-11.55378 1.38896,0 -4.15499,5.17291 -1.94528,2.64753 2.0716,-2.36754 -10.60284,-8.34442 -20.15625,-7.9375 z m -15.25,6.15625 c 7.08538,-0.026 14.56694,0.50088 14.125,10.59375 -0.21736,4.96397 -9.56814,8.875 -17.34375,8.875 -7.77562,0 -14.84375,-3.59378 -14.84375,-8.5625 0,-4.96872 7.31813,-10.875 15.09375,-10.875 0.97195,0 1.95655,-0.0275 2.96875,-0.0312 z"
           style="fill:#333333;fill-opacity:1;stroke:none"
           inkscape:connector-curvature="0"
           sodipodi:nodetypes="ssscssaaassscsssssc" />
      </g>
      <path
         style="fill:#a05a2c;fill-opacity:1;stroke:#000000;stroke-width:8;stroke-linejoin:round;stroke-miterlimit:4;stroke-dasharray:none"
         d="m 342.18918,-205.78281 c 1.98776,-3.32989 175.51202,-24.24574 181.57492,-25.75889 6.06152,-1.5128 5.55583,6.06091 15.65736,4.04061 10.10152,-2.02031 51.0127,-24.24366 52.52793,-23.73859 1.51523,0.50508 9.35923,33.39368 9.35923,33.39368 0,0 -24.00644,-0.0586 -34.61304,8.02258 -10.6066,8.08122 -22.22336,37.88072 -22.22336,37.88072 0,0 -10.6066,2.0203 -15.15229,0 -4.54568,-2.02031 -14.64721,-8.5863 -14.64721,-8.5863 l -1.01015,-3.53553 c 0,0 -135.36044,62.12438 -138.89598,62.62945 -3.53553,0.50508 -16.16244,1.51523 -18.68782,2.02031 -2.52538,0.50508 -25.00127,-65.65992 -13.88959,-86.36804 z"
         id="path18911"
         inkscape:connector-curvature="0"
         transform="translate(-4.9229925e-6,0)"
         sodipodi:nodetypes="cssscscsccssc" />
      <path
         sodipodi:nodetypes="cssscscsacssc"
         transform="translate(-4.9229925e-6,0)"
         inkscape:connector-curvature="0"
         id="path18913"
         d="m 342.18918,-205.78281 c 1.98776,-3.32989 175.51202,-24.24574 181.57492,-25.75889 6.06152,-1.5128 5.55583,6.06091 15.65736,4.04061 10.10152,-2.02031 50.93086,-24.67487 52.44609,-24.1698 1.51523,0.50508 9.04692,33.89252 9.04692,33.89252 0,0 -23.61229,-0.12627 -34.21889,7.95495 -10.6066,8.08122 -22.22336,37.88072 -22.22336,37.88072 0,0 -10.6066,2.0203 -15.15229,0 -4.54568,-2.02031 -11.17981,-4.11343 -14.64721,-8.5863 -0.75094,-0.96869 -1.01015,-3.53553 -1.01015,-3.53553 0,0 -135.36044,62.12438 -138.89598,62.62945 -3.53553,0.50508 -16.16244,1.51523 -18.68782,2.02031 -2.52538,0.50508 -25.00127,-65.65992 -13.88959,-86.36804 z"
         style="fill:#a05a2c;fill-opacity:1;stroke:none" />
      <path
         style="fill:#4d4d4d;fill-opacity:1;stroke:#000000;stroke-width:8;stroke-linejoin:round;stroke-miterlimit:4;stroke-dasharray:none"
         d="m 591.86755,-251.67089 c 0,0 16.24428,-7.65001 29.37627,-8.15509 13.13198,-0.50507 120.61388,-1.97698 120.61388,-1.97698 0,0 1.1095,40.11024 0.0993,40.86786 -1.01016,0.75761 -1.01016,4.29315 -3.283,5.05076 -43.7991,-3.58283 -111.42568,-1.86466 -137.75953,-1.89403 z"
         id="path18915"
         inkscape:connector-curvature="0"
         sodipodi:nodetypes="cscsccc"
         transform="translate(-4.9229925e-6,0)" />
      <path
         transform="translate(-4.9229925e-6,0)"
         sodipodi:nodetypes="cscsccc"
         inkscape:connector-curvature="0"
         id="path18917"
         d="m 591.86755,-251.67089 c 0,0 16.24428,-7.65001 29.37627,-8.15509 13.13198,-0.50507 120.61388,-1.97698 120.61388,-1.97698 0,0 0.41805,39.64602 0.0993,40.86786 -0.37881,1.45209 -1.01016,4.29315 -3.283,5.05076 -43.7991,-3.58283 -111.42568,-1.86466 -137.75953,-1.89403 z"
         style="fill:#4d4d4d;fill-opacity:1;stroke:none" />
      <rect
         style="fill:#333333;fill-opacity:1;stroke:#000000;stroke-width:4;stroke-miterlimit:4;stroke-dasharray:none"
         id="rect18919"
         width="52.022854"
         height="15.278557"
         x="676.80219"
         y="-254.64894"
         ry="7.6392784"
         rx="8.049572" />
      <rect
         rx="8.049572"
         ry="7.6392784"
         y="-254.64894"
         x="676.80219"
         height="15.278557"
         width="52.022854"
         id="rect18921"
         style="fill:#808080;fill-opacity:1;stroke:none" />
      <path
         style="fill:#333333;fill-opacity:1;stroke:#000000;stroke-width:8;stroke-linejoin:round;stroke-miterlimit:4;stroke-dasharray:none"
         d="m 357.3125,-208.96875 c -8.98953,1.45515 -14.7782,2.60653 -15.125,3.1875 -11.11168,20.70812 11.38087,86.88008 13.90625,86.375 2.19505,-0.43901 11.70759,-1.24241 16.5625,-1.78125 -7.60285,-5.5358 -20.43048,-54.20527 -15.34375,-87.78125 z"
         transform="translate(-4.9229925e-6,0)"
         id="path18923"
         inkscape:connector-curvature="0" />
      <path
         id="path18925"
         transform="translate(-4.9229925e-6,0)"
         d="m 357.3125,-208.96875 c -8.98953,1.45515 -14.7782,2.60653 -15.125,3.1875 -11.11168,20.70812 11.38087,86.88008 13.90625,86.375 2.19505,-0.43901 11.70759,-1.24241 16.5625,-1.78125 -7.60285,-5.5358 -20.43048,-54.20527 -15.34375,-87.78125 z"
         style="fill:#333333;fill-opacity:1;stroke:none"
         inkscape:connector-curvature="0" />
      <path
         sodipodi:nodetypes="cscsscsscascscc"
         inkscape:connector-curvature="0"
         id="path18927"
         transform="translate(-4.9229925e-6,0)"
         d="m 597.5,-232.28125 c -5.62109,1.62187 -28.4035,10.31135 -42.9375,16.40625 -15.65737,6.56599 -24.21875,26.25 -24.21875,26.25 0,0 -10.11723,-5.03792 -20.21875,-10.59375 -10.10153,-5.55584 -36.88404,9.6012 -51.53125,18.1875 -13.07058,7.66206 -59.10781,28.96602 -112.65625,34.90625 4.22429,15.64987 9.06415,27.93717 10.15625,27.71875 2.52538,-0.50508 15.15197,-1.52617 18.6875,-2.03125 3.53554,-0.50507 138.875,-62.625 138.875,-62.625 0,0 0.27764,2.5639 1.03125,3.53125 3.47496,4.4605 10.07932,6.57344 14.625,8.59375 4.54569,2.0203 15.15625,0 15.15625,0 0,0 11.61215,-29.79378 22.21875,-37.875 10.6066,-8.08122 34.34375,-7.59375 34.34375,-7.59375 0,0 -1.65261,-7.20862 -3.53125,-14.875 z"
         style="opacity:0.35840705;fill:#000000;fill-opacity:1;stroke:none" />
      <path
         id="path18929"
         transform="translate(-4.9229925e-6,0)"
         d="m 522.03125,-231.25 c -16.98501,2.75244 -177.92713,22.25804 -179.84375,25.46875 -2.11349,3.93877 -3.01085,9.5125 -3.0625,15.96875 25.56139,-0.46567 86.41608,-6.08661 136.59375,-22.8125 24.34497,-8.11499 37.78386,-14.0027 46.3125,-18.625 z"
         style="opacity:0.19026549;fill:#ffffff;fill-opacity:1;stroke:none"
         inkscape:connector-curvature="0" />
      <path
         id="path18931"
         transform="translate(-4.9229925e-6,0)"
         d="m 702.90625,-254.65625 c 5.54293,6.87905 2.05657,12.1687 -2.0625,15.28125 l 19.9375,0 c 4.45946,0 8.03125,-3.39284 8.03125,-7.625 0,-4.23216 -3.57179,-7.65625 -8.03125,-7.65625 l -17.875,0 z"
         style="opacity:0.73893804;fill:#000000;fill-opacity:1;stroke:none"
         inkscape:connector-curvature="0" />
      <path
         sodipodi:nodetypes="csssscsssccsssssc"
         inkscape:connector-curvature="0"
         id="path18933"
         transform="translate(-4.9229925e-6,0)"
         d="m 732.78125,-259.46875 c 0.91765,1.43882 1.83515,2.85723 2.625,4.1875 4.79823,8.08122 4.26872,15.14261 -3.8125,22.71875 -8.08122,7.57615 -22.45923,5.06679 -35.84375,1.53125 -13.38452,-3.53553 -27.79774,5.28886 -51.03125,4.53125 -21.98515,-0.71691 -26.18767,-5.47902 -46.46875,-5.5625 1.33957,5.77225 2.72812,10.93494 3.8125,11.625 1.38896,0.88389 25.38087,1.03252 27.90625,0.90625 2.52538,-0.12627 18.04045,0.24747 23.34375,0.5 3.72888,0.17757 8.89355,-0.14726 9.65625,0.875 11.93591,0.0101 24.33457,0.11813 36.40625,0.40625 0.0562,-0.0243 0.16406,-0.0513 0.28125,-0.0625 3.75,-0.35714 35.05427,0.71875 36.31696,0.71875 3.48215,0 3.9375,-3.59375 3.9375,-4.84375 0,-1.25 -0.35268,-31.0625 -0.53125,-32.3125 -0.17857,-1.25 -0.54465,-5 -3.9375,-5 -0.52314,0 -0.73125,-0.0829 -2.66071,-0.21875 z"
         style="opacity:0.58849553;fill:#000000;fill-opacity:1;stroke:none" />
      <path
         sodipodi:nodetypes="csssssssc"
         transform="translate(-4.9229925e-6,0)"
         inkscape:connector-curvature="0"
         id="path18935"
         d="m 595.99001,-248.46176 c 1.51523,8.5863 2.27284,12.12183 4.0406,11.86929 1.76777,-0.25253 -1.76776,-8.83883 0.50508,-11.36421 2.27284,-2.52538 18.43528,-6.56599 26.01143,-7.07107 7.57614,-0.50508 36.11295,0.25254 40.91118,0 4.79822,-0.25254 5.05076,-1.76777 3.78807,-2.52538 -1.26269,-0.75762 -40.65864,-0.50508 -46.46702,-0.25254 -6.92792,0.30121 -24.74874,4.29315 -26.26397,5.80838 -1.51523,1.51523 -2.52537,3.53553 -2.52537,3.53553 z"
         style="opacity:0.58849553;fill:#ffffff;fill-opacity:1;stroke:none" />
      <g
         id="g18937"
         transform="matrix(1.0027479,0,0,1.0027479,105.63126,73.564932)">
        <path
           sodipodi:type="arc"
           style="opacity:0.55769228;fill:#808080;fill-opacity:1;stroke:none"
           id="path18939"
           sodipodi:cx="622.41071"
           sodipodi:cy="-298.97711"
           sodipodi:rx="4.375"
           sodipodi:ry="4.375"
           d="m 626.78571,-298.97711 c 0,2.41624 -1.95876,4.375 -4.375,4.375 -2.41625,0 -4.375,-1.95876 -4.375,-4.375 0,-2.41625 1.95875,-4.375 4.375,-4.375 2.41624,0 4.375,1.95875 4.375,4.375 z"
           transform="matrix(1.1836735,0,0,1.1836735,-113.82927,55.583807)" />
        <path
           transform="translate(-4.9229925e-6,0)"
           d="m 626.78571,-298.97711 c 0,2.41624 -1.95876,4.375 -4.375,4.375 -2.41625,0 -4.375,-1.95876 -4.375,-4.375 0,-2.41625 1.95875,-4.375 4.375,-4.375 2.41624,0 4.375,1.95875 4.375,4.375 z"
           sodipodi:ry="4.375"
           sodipodi:rx="4.375"
           sodipodi:cy="-298.97711"
           sodipodi:cx="622.41071"
           id="path18941"
           style="fill:#000000;fill-opacity:1;stroke:none"
           sodipodi:type="arc" />
        <path
           transform="matrix(1.5888889,0,0,1.5888889,-366.50845,175.63225)"
           d="m 624.41963,-298.88782 c 0,1.1095 -0.89942,2.00893 -2.00892,2.00893 -1.10951,0 -2.00893,-0.89943 -2.00893,-2.00893 0,-1.1095 0.89942,-2.00893 2.00893,-2.00893 1.1095,0 2.00892,0.89943 2.00892,2.00893 z"
           sodipodi:ry="2.0089285"
           sodipodi:rx="2.0089285"
           sodipodi:cy="-298.88782"
           sodipodi:cx="622.41071"
           id="path18943"
           style="fill:#999999;fill-opacity:1;stroke:none"
           sodipodi:type="arc" />
        <rect
           ry="1.1111678"
           rx="0.4347865"
           y="-302.0314"
           x="621.9472"
           height="5.5558391"
           width="1.0869662"
           id="rect18945"
           style="fill:#000000;fill-opacity:1;stroke:none" />
        <rect
           transform="matrix(0,1,-1,0,0,0)"
           style="fill:#000000;fill-opacity:1;stroke:none"
           id="rect18947"
           width="1.0869662"
           height="5.5558391"
           x="-299.70227"
           y="-625.17395"
           rx="0.4347865"
           ry="0.29041883" />
      </g>
      <g
         transform="matrix(1.0027479,0,0,1.0027479,-18.11243,72.302241)"
         id="g18949">
        <path
           transform="matrix(1.1836735,0,0,1.1836735,-113.82927,55.583807)"
           d="m 626.78571,-298.97711 c 0,2.41624 -1.95876,4.375 -4.375,4.375 -2.41625,0 -4.375,-1.95876 -4.375,-4.375 0,-2.41625 1.95875,-4.375 4.375,-4.375 2.41624,0 4.375,1.95875 4.375,4.375 z"
           sodipodi:ry="4.375"
           sodipodi:rx="4.375"
           sodipodi:cy="-298.97711"
           sodipodi:cx="622.41071"
           id="path18951"
           style="opacity:0.55769228;fill:#808080;fill-opacity:1;stroke:none"
           sodipodi:type="arc" />
        <path
           sodipodi:type="arc"
           style="fill:#000000;fill-opacity:1;stroke:none"
           id="path18953"
           sodipodi:cx="622.41071"
           sodipodi:cy="-298.97711"
           sodipodi:rx="4.375"
           sodipodi:ry="4.375"
           d="m 626.78571,-298.97711 c 0,2.41624 -1.95876,4.375 -4.375,4.375 -2.41625,0 -4.375,-1.95876 -4.375,-4.375 0,-2.41625 1.95875,-4.375 4.375,-4.375 2.41624,0 4.375,1.95875 4.375,4.375 z"
           transform="translate(-4.9229925e-6,0)" />
        <path
           sodipodi:type="arc"
           style="fill:#b3b3b3;fill-opacity:1;stroke:none"
           id="path18955"
           sodipodi:cx="622.41071"
           sodipodi:cy="-298.88782"
           sodipodi:rx="2.0089285"
           sodipodi:ry="2.0089285"
           d="m 624.41963,-298.88782 c 0,1.1095 -0.89942,2.00893 -2.00892,2.00893 -1.10951,0 -2.00893,-0.89943 -2.00893,-2.00893 0,-1.1095 0.89942,-2.00893 2.00893,-2.00893 1.1095,0 2.00892,0.89943 2.00892,2.00893 z"
           transform="matrix(1.5888889,0,0,1.5888889,-366.50845,175.63225)" />
        <rect
           style="fill:#000000;fill-opacity:1;stroke:none"
           id="rect18957"
           width="1.0869662"
           height="5.5558391"
           x="621.9472"
           y="-302.0314"
           rx="0.4347865"
           ry="1.1111678" />
        <rect
           ry="0.29041883"
           rx="0.4347865"
           y="-625.17395"
           x="-299.70227"
           height="5.5558391"
           width="1.0869662"
           id="rect18959"
           style="fill:#000000;fill-opacity:1;stroke:none"
           transform="matrix(0,1,-1,0,0,0)" />
      </g>
      <g
         id="g18961"
         transform="matrix(0.78330097,0,0,0.78330097,112.89934,-15.004969)">
        <path
           sodipodi:type="arc"
           style="opacity:0.55769228;fill:#808080;fill-opacity:1;stroke:none"
           id="path18963"
           sodipodi:cx="622.41071"
           sodipodi:cy="-298.97711"
           sodipodi:rx="4.375"
           sodipodi:ry="4.375"
           d="m 626.78571,-298.97711 c 0,2.41624 -1.95876,4.375 -4.375,4.375 -2.41625,0 -4.375,-1.95876 -4.375,-4.375 0,-2.41625 1.95875,-4.375 4.375,-4.375 2.41624,0 4.375,1.95875 4.375,4.375 z"
           transform="matrix(1.1836735,0,0,1.1836735,-113.82927,55.583807)" />
        <path
           transform="translate(-4.9229925e-6,0)"
           d="m 626.78571,-298.97711 c 0,2.41624 -1.95876,4.375 -4.375,4.375 -2.41625,0 -4.375,-1.95876 -4.375,-4.375 0,-2.41625 1.95875,-4.375 4.375,-4.375 2.41624,0 4.375,1.95875 4.375,4.375 z"
           sodipodi:ry="4.375"
           sodipodi:rx="4.375"
           sodipodi:cy="-298.97711"
           sodipodi:cx="622.41071"
           id="path18965"
           style="fill:#000000;fill-opacity:1;stroke:none"
           sodipodi:type="arc" />
        <path
           transform="matrix(1.5888889,0,0,1.5888889,-366.50845,175.63225)"
           d="m 624.41963,-298.88782 c 0,1.1095 -0.89942,2.00893 -2.00892,2.00893 -1.10951,0 -2.00893,-0.89943 -2.00893,-2.00893 0,-1.1095 0.89942,-2.00893 2.00893,-2.00893 1.1095,0 2.00892,0.89943 2.00892,2.00893 z"
           sodipodi:ry="2.0089285"
           sodipodi:rx="2.0089285"
           sodipodi:cy="-298.88782"
           sodipodi:cx="622.41071"
           id="path18967"
           style="fill:#cccccc;fill-opacity:1;stroke:none"
           sodipodi:type="arc" />
        <rect
           ry="1.1111678"
           rx="0.4347865"
           y="-302.0314"
           x="621.9472"
           height="5.5558391"
           width="1.0869662"
           id="rect18969"
           style="fill:#000000;fill-opacity:1;stroke:none" />
        <rect
           transform="matrix(0,1,-1,0,0,0)"
           style="fill:#000000;fill-opacity:1;stroke:none"
           id="rect18971"
           width="1.0869662"
           height="5.5558391"
           x="-299.70227"
           y="-625.17395"
           rx="0.4347865"
           ry="0.29041883" />
      </g>
      <g
         transform="matrix(0.90521593,0,0,0.90521593,168.15186,13.9133)"
         id="g18973">
        <path
           transform="matrix(1.1836735,0,0,1.1836735,-113.82927,55.583807)"
           d="m 626.78571,-298.97711 c 0,2.41624 -1.95876,4.375 -4.375,4.375 -2.41625,0 -4.375,-1.95876 -4.375,-4.375 0,-2.41625 1.95875,-4.375 4.375,-4.375 2.41624,0 4.375,1.95875 4.375,4.375 z"
           sodipodi:ry="4.375"
           sodipodi:rx="4.375"
           sodipodi:cy="-298.97711"
           sodipodi:cx="622.41071"
           id="path18975"
           style="opacity:0.55769228;fill:#808080;fill-opacity:1;stroke:none"
           sodipodi:type="arc" />
        <path
           sodipodi:type="arc"
           style="fill:#000000;fill-opacity:1;stroke:none"
           id="path18977"
           sodipodi:cx="622.41071"
           sodipodi:cy="-298.97711"
           sodipodi:rx="4.375"
           sodipodi:ry="4.375"
           d="m 626.78571,-298.97711 c 0,2.41624 -1.95876,4.375 -4.375,4.375 -2.41625,0 -4.375,-1.95876 -4.375,-4.375 0,-2.41625 1.95875,-4.375 4.375,-4.375 2.41624,0 4.375,1.95875 4.375,4.375 z"
           transform="translate(-4.9229925e-6,0)" />
        <path
           sodipodi:type="arc"
           style="fill:#cccccc;fill-opacity:1;stroke:none"
           id="path18979"
           sodipodi:cx="622.41071"
           sodipodi:cy="-298.88782"
           sodipodi:rx="2.0089285"
           sodipodi:ry="2.0089285"
           d="m 624.41963,-298.88782 c 0,1.1095 -0.89942,2.00893 -2.00892,2.00893 -1.10951,0 -2.00893,-0.89943 -2.00893,-2.00893 0,-1.1095 0.89942,-2.00893 2.00893,-2.00893 1.1095,0 2.00892,0.89943 2.00892,2.00893 z"
           transform="matrix(1.5888889,0,0,1.5888889,-366.50845,175.63225)" />
        <rect
           style="fill:#000000;fill-opacity:1;stroke:none"
           id="rect18981"
           width="1.0869662"
           height="5.5558391"
           x="621.9472"
           y="-302.0314"
           rx="0.4347865"
           ry="1.1111678" />
        <rect
           ry="0.29041883"
           rx="0.4347865"
           y="-625.17395"
           x="-299.70227"
           height="5.5558391"
           width="1.0869662"
           id="rect18983"
           style="fill:#000000;fill-opacity:1;stroke:none"
           transform="matrix(0,1,-1,0,0,0)" />
      </g>
      <path
         inkscape:connector-curvature="0"
         id="path18985"
         d="m 804.83906,-214.11657 c 5.05076,-3.40927 2.77792,-7.57615 2.77792,-11.23795 0,-3.6618 1.38896,-8.20749 2.14658,-8.71257 0.75761,-0.50507 2.0203,3.91435 2.39911,6.69226 0.3788,2.77792 -0.75762,6.31346 -0.75762,7.44988 0,1.13642 0.88389,3.91434 1.51523,4.67196 0.63135,0.75761 -8.08122,1.13642 -8.08122,1.13642 z"
         style="fill:#000000;fill-opacity:1;stroke:none" />
      <path
         style="fill:#000000;fill-opacity:1;stroke:none"
         d="m 821.79069,-214.11657 c 5.05076,-3.40927 2.77792,-7.57615 2.77792,-11.23795 0,-3.6618 1.38896,-8.20749 2.14658,-8.71257 0.75761,-0.50507 2.0203,3.91435 2.39911,6.69226 0.3788,2.77792 -0.75762,6.31346 -0.75762,7.44988 0,1.13642 0.88389,3.91434 1.51523,4.67196 0.63135,0.75761 -8.08122,1.13642 -8.08122,1.13642 z"
         id="path18987"
         inkscape:connector-curvature="0" />
      <path
         inkscape:connector-curvature="0"
         id="path18989"
         d="m 838.74229,-214.11657 c 5.05076,-3.40927 2.77792,-7.57615 2.77792,-11.23795 0,-3.6618 1.38896,-8.20749 2.14658,-8.71257 0.75761,-0.50507 2.0203,3.91435 2.39911,6.69226 0.3788,2.77792 -0.75762,6.31346 -0.75762,7.44988 0,1.13642 0.88389,3.91434 1.51523,4.67196 0.63135,0.75761 -8.08122,1.13642 -8.08122,1.13642 z"
         style="fill:#000000;fill-opacity:1;stroke:none" />
      <path
         style="fill:#000000;fill-opacity:1;stroke:none"
         d="m 855.69389,-214.11657 c 5.05076,-3.40927 2.77792,-7.57615 2.77792,-11.23795 0,-3.6618 1.38896,-8.20749 2.14658,-8.71257 0.75761,-0.50507 2.0203,3.91435 2.39911,6.69226 0.3788,2.77792 -0.75762,6.31346 -0.75762,7.44988 0,1.13642 0.88389,3.91434 1.51523,4.67196 0.63135,0.75761 -8.08122,1.13642 -8.08122,1.13642 z"
         id="path18991"
         inkscape:connector-curvature="0" />
      <path
         inkscape:connector-curvature="0"
         id="path18993"
         d="m 872.64549,-214.11657 c 5.05076,-3.40927 2.77792,-7.57615 2.77792,-11.23795 0,-3.6618 1.38896,-8.20749 2.14658,-8.71257 0.75761,-0.50507 2.0203,3.91435 2.39911,6.69226 0.3788,2.77792 -0.75762,6.31346 -0.75762,7.44988 0,1.13642 0.88389,3.91434 1.51523,4.67196 0.63135,0.75761 -8.08122,1.13642 -8.08122,1.13642 z"
         style="fill:#000000;fill-opacity:1;stroke:none" />
      <path
         id="path18995"
         transform="translate(-4.9229925e-6,0)"
         d="m 877.5625,-228 c 0,0 -3.00793,3.13976 -8.4375,4.78125 -5.42957,1.6415 -8.34375,-3.90625 -8.34375,-3.90625 0,0 -0.27141,3.296 -7.46875,4.9375 -7.19733,1.64149 -8.6875,-3.53125 -8.6875,-3.53125 0,0 -0.75413,1.63721 -6.5625,3.53125 -5.80838,1.89403 -11.625,-3.28125 -11.625,-3.28125 0,0 -2.15704,2.02237 -5.1875,2.90625 -3.03046,0.88388 -8.19464,-1.64229 -10.59375,-3.03125 -2.34741,-1.35903 -4.58079,6.69562 -12.71875,3.96875 -6.8e-4,0.009 0,0.15625 0,0.15625 l -5.15625,0 c -1.60714,2.5 -2.33036,7.13393 4.1875,6.6875 22.51799,-1.54234 82.80015,-0.59807 86.125,-1.25 3.49922,-0.68612 5.64293,-4.43026 6.5625,-8.78125 l -1.46875,0.59375 C 884.52569,-222.70352 877.5625,-228 877.5625,-228 z"
         style="opacity:0.50442475;fill:#000000;fill-opacity:1;stroke:none"
         inkscape:connector-curvature="0" />
      <path
         id="path18997"
         transform="translate(-4.9229925e-6,0)"
         d="m 885.40625,-240.3125 -87.375,0.40625 c 0.16015,1.05696 0.25651,2.3767 0.3125,3.75 18.71976,-0.38245 82.83557,0.65957 90.90625,-0.28125 -0.7965,-2.32423 -2.10708,-3.875 -3.84375,-3.875 z"
         style="opacity:0.50442475;fill:#000000;fill-opacity:1;stroke:none"
         inkscape:connector-curvature="0" />
      <path
         transform="translate(-4.9229925e-6,0)"
         d="m 385.3732,-169.16478 c 0,3.34735 -2.71356,6.06092 -6.06091,6.06092 -3.34735,0 -6.06092,-2.71357 -6.06092,-6.06092 0,-3.34735 2.71357,-6.06092 6.06092,-6.06092 3.34735,0 6.06091,2.71357 6.06091,6.06092 z"
         sodipodi:ry="6.0609155"
         sodipodi:rx="6.0609155"
         sodipodi:cy="-169.16478"
         sodipodi:cx="379.31229"
         id="path18999"
         style="opacity:0.34513275;fill:#000000;fill-opacity:1;stroke:none"
         sodipodi:type="arc" />
      <path
         transform="translate(-4.9229925e-6,0)"
         d="m 395.47472,-162.21999 c 0,1.74342 -1.41331,3.15673 -3.15673,3.15673 -1.74341,0 -3.15672,-1.41331 -3.15672,-3.15673 0,-1.74341 1.41331,-3.15672 3.15672,-3.15672 1.74342,0 3.15673,1.41331 3.15673,3.15672 z"
         sodipodi:ry="3.1567266"
         sodipodi:rx="3.1567266"
         sodipodi:cy="-162.21999"
         sodipodi:cx="392.31799"
         id="path19001"
         style="opacity:0.34513275;fill:#000000;fill-opacity:1;stroke:none"
         sodipodi:type="arc" />
    </g>
    <path
       style="fill:#1a1a1a;fill-opacity:1;stroke:#1a1a1a"
       d="m 445.81538,501.09375 c 0,0 -116.12374,1.57929 -130.3125,2.125 -14.18876,0.54573 -31.75,8.8125 -31.75,8.8125 -1.63716,-0.54572 -45.74183,23.94211 -56.65625,26.125 -10.91444,2.18288 -10.38819,-6.00954 -16.9375,-4.375 -0.27995,0.0699 -0.99398,0.20042 -1.90625,0.34375 0.0192,-0.0104 0.0433,-0.0208 0.0625,-0.0312 -1.14699,0.18587 -2.90526,0.46268 -5.1875,0.78125 -0.25537,0.0356 -0.48162,0.0566 -0.75,0.0937 -0.87415,0.12101 -1.43028,0.20705 -2.4375,0.34375 -1.65494,0.22573 -3.17019,0.41885 -5.1875,0.6875 -5.16403,0.6886 -10.52326,1.38283 -17.6875,2.3125 -17.03798,2.21306 -38.31393,4.94991 -60.65625,7.875 -3.50455,0.45881 -6.81108,0.91326 -10.31251,1.375 -0.36102,0.0476 -0.70171,0.0774 -1.0625,0.125 -0.71916,0.0949 -1.37574,0.18633 -2.09375,0.28125 -15.366161,2.03159 -30.58938,4.07654 -43.812495,5.9375 -0.921954,0.1298 -1.940182,0.27815 -2.84375,0.40625 -12.757609,1.80919 -23.685068,3.45273 -31.1875,4.75 -0.168006,0.029 -0.335378,0.065 -0.5,0.0937 -0.679389,0.11881 -1.284363,0.19936 -1.90625,0.3125 -0.427456,0.0775 -0.851368,0.17537 -1.25,0.25 -0.956758,0.1791 -1.873165,0.33842 -2.65625,0.5 -0.03561,0.007 -0.08975,0.0239 -0.125,0.0312 -0.705937,0.14671 -1.354272,0.27515 -1.90625,0.40625 -0.0816,0.0194 -0.203118,0.0435 -0.28125,0.0625 -0.05917,0.0144 -0.09908,0.0483 -0.15625,0.0625 -0.202956,0.0506 -0.322876,0.077 -0.5,0.125 -0.296573,0.0791 -0.555554,0.14696 -0.78125,0.21875 -0.01821,0.006 -0.04478,0.0254 -0.0625,0.0312 -0.06591,0.0217 -0.190858,0.0415 -0.25,0.0625 -0.04393,0.0156 -0.08483,0.0473 -0.125,0.0625 -0.04357,0.0168 -0.08609,0.015 -0.125,0.0312 -0.03261,0.0135 -0.0644,0.0494 -0.09375,0.0625 -0.03482,0.0159 -0.09491,0.0159 -0.125,0.0312 -0.142866,0.0724 -0.244541,0.15726 -0.28125,0.21875 -0.187592,0.3496 -0.361157,0.68938 -0.53125,1.0625 -0.08431,0.18425 -0.138646,0.37266 -0.21875,0.5625 -0.0038,0.009 0.0038,0.0222 0,0.0312 -0.0055,0.0132 -0.02572,0.0181 -0.03125,0.0312 -0.0053,0.0126 -0.02602,0.0186 -0.03125,0.0312 -0.0035,0.008 0.0035,0.0228 0,0.0312 -0.226318,0.54656 -0.432113,1.09721 -0.625,1.6875 -0.0075,0.0227 -0.02385,0.0397 -0.03125,0.0625 -0.128747,0.39741 -0.229588,0.8339 -0.34375,1.25 -0.118158,0.42976 -0.240776,0.86365 -0.34375,1.3125 -0.211901,0.92509 -0.381008,1.87449 -0.53125,2.875 -0.04548,0.30231 -0.08494,0.59749 -0.125,0.90625 -0.197547,1.52252 -0.333155,3.14865 -0.40625,4.8125 -0.03716,0.85077 -0.08669,1.71078 -0.09375,2.59375 0.0096,-1.7e-4 0.02166,1.8e-4 0.03125,0 -0.06436,7.92897 1.032653,17.07409 2.75,26.21875 0.247913,1.32144 0.510122,2.61996 0.78125,3.9375 0.0021,0.01 -0.0021,0.0213 0,0.0312 0.269233,1.30748 0.555143,2.60991 0.84375,3.90625 0.293166,1.31639 0.596669,2.6088 0.90625,3.90625 0.306968,1.28756 0.617908,2.55102 0.9375,3.8125 0.372698,1.47059 0.740317,2.88813 1.125,4.3125 0.04324,0.16019 0.08164,0.30922 0.125,0.46875 0.852532,3.13539 1.729589,6.09497 2.59375,8.90625 0.103727,0.33759 0.209095,0.66811 0.3125,1 0.08005,0.25691 0.138953,0.52787 0.21875,0.78125 0.104938,0.33319 0.208075,0.67308 0.3125,1 0.08998,0.28179 0.191734,0.59806 0.28125,0.875 0.0042,0.0129 0.02707,0.0183 0.03125,0.0312 0.173499,0.53644 0.328654,0.98261 0.5,1.5 0.01393,0.0421 0.01734,0.0831 0.03125,0.125 0.39727,1.19678 0.775261,2.35291 1.15625,3.4375 0.06568,0.18716 0.153666,0.41017 0.21875,0.59375 0.16721,0.4716 0.30586,0.83402 0.46875,1.28125 0.04382,0.1203 0.08152,0.22526 0.125,0.34375 0.123892,0.33783 0.254003,0.73971 0.375,1.0625 0.07795,0.20743 0.17336,0.42407 0.25,0.625 0.170963,0.44817 0.367376,0.99167 0.53125,1.40625 0.183279,0.46377 0.357796,0.86141 0.53125,1.28125 0.03887,0.0941 0.08666,0.2207 0.125,0.3125 0.358306,0.85705 0.693274,1.60397 1,2.25 0.102213,0.21496 0.216759,0.46628 0.3125,0.65625 0.05399,0.10667 0.104437,0.24532 0.15625,0.34375 0.03165,0.0604 0.06292,0.0989 0.09375,0.15625 0.140326,0.26022 0.283919,0.46197 0.40625,0.65625 0.03247,0.0517 0.06261,0.10927 0.09375,0.15625 0.0099,0.0149 0.02152,0.0168 0.03125,0.0312 0.0152,0.0225 0.01638,0.0412 0.03125,0.0625 0.07887,0.1141 0.149312,0.20036 0.21875,0.28125 0.0037,0.004 0.02761,-0.004 0.03125,0 0.0045,0.005 -0.0045,0.0263 0,0.0312 0.02938,0.0327 0.06621,0.0987 0.09375,0.125 0.0038,0.004 0.02745,-0.004 0.03125,0 0.006,0.005 -0.0059,0.0261 0,0.0312 0.0075,0.007 0.02389,0.025 0.03125,0.0312 0.03283,0.0254 0.06405,0.0478 0.09375,0.0625 0.05986,0.0332 0.109051,0.0407 0.15625,0.0312 0.284399,-0.0569 0.751949,-0.11977 1.25,-0.1875 0.509912,-0.0688 1.131991,-0.14165 1.8125,-0.21875 1.877581,-0.214 4.175177,-0.44843 6.625,-0.6875 0.852679,-0.0831 1.626223,-0.16803 2.46875,-0.25 0.660492,-0.0645 1.248212,-0.12514 1.875,-0.1875 0.594745,-0.0592 1.235386,-0.1 1.78125,-0.15625 0.119389,-0.0121 0.164339,-0.0193 0.28125,-0.0312 0.01283,-10e-4 0.01845,0.001 0.03125,0 0.156701,-0.0161 0.223169,-0.0467 0.375,-0.0625 0.412193,-0.0433 1.03896,-0.0842 1.40625,-0.125 -0.01068,-0.008 -0.02055,-0.0233 -0.03125,-0.0312 0.799254,-0.0889 1.80806,-0.17794 2.3125,-0.25 0.238754,-0.0341 1.031466,-0.32214 2.3125,-0.84375 1.274399,-0.51894 3.051903,-1.28172 5.21875,-2.21875 4.364706,-1.88764 10.407026,-4.5652 17.53125,-7.75 42.738965,-19.10742 125.000005,-56.84375 125.000005,-56.84375 0,0 0.16587,1.56118 0.59375,2.78125 0.14036,0.40719 0.29716,0.76959 0.5,1.03125 0.23415,0.30205 0.4905,0.59243 0.75,0.875 1.29855,1.40997 2.90555,2.57509 4.625,3.59375 0.68927,0.40686 1.37519,0.79566 2.09375,1.15625 2.87453,1.45201 5.88104,2.56171 8.34375,3.65625 0.007,0.003 0.0239,-0.003 0.0312,0 1.22502,0.53828 2.84037,0.80463 4.59375,0.90625 0.0104,6.2e-4 0.0208,-6.1e-4 0.0312,0 0.43149,0.0245 0.87004,0.0568 1.3125,0.0625 0.0105,1.5e-4 0.0207,-1.4e-4 0.0312,0 0.44284,0.005 0.89833,0.0104 1.34375,0 1.82262,-0.0426 3.64059,-0.22719 5.15625,-0.40625 2.27424,-0.2686 3.875,-0.5625 3.875,-0.5625 0,0 0.19691,-0.50879 0.5625,-1.40625 0.36719,-0.90155 0.91151,-2.19385 1.59375,-3.78125 0.67789,-1.57748 1.50061,-3.42869 2.4375,-5.46875 0.4718,-1.02746 0.94141,-2.08415 1.46875,-3.1875 0.52321,-1.09491 1.08495,-2.20115 1.65625,-3.34375 1.14617,-2.29258 2.35669,-4.64862 3.65625,-6.96875 0.64751,-1.15646 1.32438,-2.28363 2,-3.40625 0.67549,-1.12245 1.36554,-2.2198 2.0625,-3.28125 0.92373,-1.40678 1.86471,-2.75586 2.8125,-4 0.12001,-0.15753 0.25475,-0.3144 0.375,-0.46875 0.005,-0.007 -0.005,-0.0247 0,-0.0312 0.35838,-0.45955 0.70251,-0.88349 1.0625,-1.3125 0.35996,-0.42897 0.733,-0.85496 1.09375,-1.25 0.36078,-0.39507 0.73302,-0.76727 1.09375,-1.125 0.71579,-0.70864 1.41431,-1.36477 2.125,-1.90625 0.007,-0.005 0.0245,0.005 0.0312,0 0.35813,-0.27286 0.70858,-0.5253 1.09375,-0.78125 1.54881,-1.02715 3.30818,-1.92438 5.1875,-2.6875 0.45611,-0.18853 0.90492,-0.35617 1.375,-0.53125 0.0123,-0.004 0.019,-0.0268 0.0312,-0.0312 0.4666,-0.17329 0.95945,-0.3082 1.4375,-0.46875 7.39503,-2.41605 15.84097,-3.23843 21.53125,-3.53125 0.008,0.004 0.0229,-0.004 0.0312,0 4.42506,2.23719 5.21282,4.03296 5.46875,6.65625 0.17054,1.74802 0.21357,3.36577 0.5,4.8125 0.0573,0.28935 0.14052,0.56793 0.21875,0.84375 0.15646,0.55163 0.35214,1.06794 0.625,1.5625 1.09145,1.97825 6.53914,7.29471 10.9375,9.03125 5.80065,2.29018 12.7416,3.03742 18.6875,1.15625 6.90485,-2.18455 11.36846,-8.84373 16.9375,-13.5625 0.37127,-0.31458 0.77439,-0.6108 1.15625,-0.90625 3.84507,-2.97494 9.69541,-7.8426 13.40625,-10.53125 0.46526,-6.6e-4 0.90806,-0.0308 1.375,-0.0312 0.0981,0.34623 0.0187,0.66615 -0.21875,0.9375 -1.38494,1.58278 0.0319,0.36288 1.1875,-0.9375 0.005,-0.005 0.0265,0.005 0.0312,0 1.02124,-5.2e-4 1.97172,-7.4e-4 3,0 3.22411,0.003 6.50798,0.0139 9.78125,0.0312 0.3457,0.002 0.68515,-0.002 1.03125,0 0.87387,0.005 1.74904,0.025 2.625,0.0312 0.70856,0.005 1.41534,-0.006 2.125,0 1.35767,0.0112 2.70233,0.0169 4.0625,0.0312 1.47964,0.0153 2.95723,0.0432 4.4375,0.0625 0.99846,0.013 2.0022,0.0476 3,0.0625 4.10843,0.0619 8.21563,0.12171 12.28125,0.21875 0.0104,2.5e-4 0.0208,-2.5e-4 0.0312,0 15.09246,0.36061 29.70259,0.98952 42.4375,2.03125 2.26383,-0.7546 2.98118,-3.3898 3.40625,-5.03125 l 54.9375,-0.875 c -0.28708,0.47057 -0.52709,1.00562 -0.71875,1.5625 -0.14211,0.41147 -0.2539,0.82737 -0.3125,1.25 -0.029,0.21157 -0.0594,0.41633 -0.0625,0.625 -0.006,0.41735 0.0387,0.83588 0.15625,1.21875 0.17636,0.5743 0.53236,1.08913 1.0625,1.5 0.87787,0.68008 2.31785,1.08216 4.5,0.9375 1.52063,-0.10415 3.21675,-0.19701 5.03125,-0.28125 1.54137,-0.0716 3.21747,-0.16012 4.9375,-0.21875 -0.41164,0.40504 -0.86205,0.83032 -1.4375,1.21875 0,0 9.40091,-0.43142 8.71875,-1.25 -0.0344,-0.0413 -0.0581,-0.10431 -0.0937,-0.15625 0.054,-10e-4 0.10216,0.001 0.15625,0 2.2523,-0.0509 4.60378,-0.0876 7,-0.125 1.39633,-0.0218 2.91198,-0.0134 4.34375,-0.0312 -0.47692,0.53106 -1.06597,1.05859 -1.8125,1.5625 0,0 9.40091,-0.43142 8.71875,-1.25 -0.0891,-0.10687 -0.15437,-0.23377 -0.25,-0.40625 1.27693,-0.0109 2.49597,-0.0226 3.78125,-0.0312 0.0319,-2.2e-4 0.0618,2.1e-4 0.0937,0 2.6493,-0.0178 5.26478,-0.0211 7.90625,-0.0312 -0.49706,0.58351 -1.12061,1.16735 -1.9375,1.71875 0,0 9.4009,-0.43142 8.71875,-1.25 -0.10422,-0.12506 -0.19992,-0.28715 -0.3125,-0.5 4.46988,-0.01 7.79862,-0.0278 11.875,-0.0312 -0.50313,0.60166 -1.12763,1.21349 -1.96875,1.78125 0,0 9.40091,-0.43142 8.71875,-1.25 -0.1099,-0.13188 -0.22482,-0.30259 -0.34375,-0.53125 2.7297,-0.004 6.29352,-0.0216 8.59375,-0.0312 1.37291,-0.006 2.1875,-0.0219 3.375,-0.0312 -0.51038,0.62536 -1.15855,1.25468 -2.03125,1.84375 0,0 9.40091,-0.43142 8.71875,-1.25 -0.12885,-0.15462 -0.2662,-0.37253 -0.40625,-0.65625 1.48785,-0.0404 2.60949,-0.11706 2.96875,-0.1875 0.005,-9.9e-4 0.0262,9.9e-4 0.0312,0 0.10887,-0.0219 0.20607,-0.0664 0.3125,-0.0937 0.0734,-0.0185 0.14652,-0.0102 0.21875,-0.0312 0.0422,-0.0123 0.0832,-0.0181 0.125,-0.0312 0.0726,-0.0231 0.14734,-0.0369 0.21875,-0.0625 0.11777,-0.042 0.22922,-0.10756 0.34375,-0.15625 0.0298,-0.0127 0.0641,-0.0181 0.0937,-0.0312 0.13668,-0.061 0.2742,-0.11712 0.40625,-0.1875 0.0729,-0.0385 0.14727,-0.0837 0.21875,-0.125 0.19007,-0.11083 0.38232,-0.24534 0.5625,-0.375 0.012,-0.009 0.0193,-0.0226 0.0312,-0.0312 0.31836,-0.23198 0.61872,-0.49496 0.90625,-0.78125 0.0309,-0.0308 0.0632,-0.0623 0.0937,-0.0937 0.0256,-0.0263 0.0684,-0.0357 0.0937,-0.0625 0.30322,-0.31945 0.57587,-0.6886 0.84375,-1.0625 0.0297,-0.0417 0.0644,-0.0826 0.0937,-0.125 0.16009,-0.23031 0.32153,-0.47092 0.46875,-0.71875 0.11744,-0.19901 0.23452,-0.41571 0.34375,-0.625 0.0521,-0.0997 0.10597,-0.21057 0.15625,-0.3125 0.37925,-0.77127 0.72528,-1.59525 1,-2.46875 l 20.40625,-0.3125 c 0.28712,0 0.5415,-0.0364 0.8125,-0.0625 0.0302,-0.003 0.0637,0.004 0.0937,0 0.30004,-0.0365 0.59497,-0.0856 0.875,-0.15625 4.09977,-0.91708 6.04045,-4.95953 5.875,-8.84375 0.23501,-4.98626 -2.25056,-10.16285 -7.46875,-10.0625 l -122.21875,-0.5 228.90625,-3.4375 c 0.3696,0.0228 0.71642,-0.0262 1.03125,-0.125 0.0323,-0.01 0.062,-0.0201 0.0937,-0.0312 0.42836,-0.15198 0.79728,-0.40491 1.125,-0.75 0.0586,-0.0609 0.13196,-0.12133 0.1875,-0.1875 0.0543,-0.0662 0.10493,-0.14757 0.15625,-0.21875 0.0686,-0.0933 0.12401,-0.17978 0.1875,-0.28125 0.0304,-0.0492 0.0645,-0.10519 0.0937,-0.15625 0.0717,-0.1248 0.1541,-0.27125 0.21875,-0.40625 0.02,-0.0424 0.0432,-0.0817 0.0625,-0.125 0.0223,-0.0493 0.041,-0.10576 0.0625,-0.15625 0.21902,-0.52576 0.37472,-1.12089 0.5,-1.75 0.93761,-4.60414 -0.56806,-11.39512 -3.71875,-11.5625 l -286.40625,-0.9375 c -0.0116,-0.43666 -0.0312,-2 -0.0312,-2 z m -118.1875,47.3125 c 0.009,0.003 0.0223,-0.003 0.0312,0 3.54911,1.32671 5.98734,4.17839 5.71875,10.3125 -0.23486,5.36344 -10.34867,9.59375 -18.75,9.59375 -8.40136,0 -16.03125,-3.88143 -16.03125,-9.25 0,-1.67768 0.77562,-3.47513 2.09375,-5.125 0.26363,-0.32997 0.53826,-0.65072 0.84375,-0.96875 1.72728,-1.79817 4.10052,-3.37397 6.78125,-4.40625 0.009,-0.003 0.0223,0.003 0.0312,0 0.35941,-0.003 0.79122,0.003 1.15625,0 3.08706,9.33561 -0.84263,12.72265 -0.46875,14.03125 0.38588,1.35059 3.08823,0.67537 5.5,-2.21875 2.41178,-2.89413 4.05433,-7.61264 4.34375,-11.375 0.015,-0.19503 0.006,-0.3682 -0.0312,-0.53125 2.8208,-0.0271 5.75055,-0.0358 8.78125,-0.0625 z"
       id="path19005"
       inkscape:connector-curvature="0" />
  </g>
</svg>
